<svg width="32" height="33" viewBox="0 0 32 33" fill="none" xmlns="http://www.w3.org/2000/svg">
<path d="M16.0322 1.46582C24.5748 1.46584 31.5 8.39101 31.5 16.9336C31.5 25.4762 24.5748 32.4014 16.0322 32.4014C7.48964 32.4014 0.56447 25.4762 0.564453 16.9336C0.564453 8.391 7.48963 1.46582 16.0322 1.46582Z" stroke="white"/>
<path d="M19.6745 17.9713L20.1606 14.9631H17.1197V13.0115C17.1197 12.1883 17.5437 11.3864 18.9045 11.3864H20.2857V8.82619C19.475 8.70182 18.6566 8.63395 17.8364 8.62305C15.3348 8.62305 13.6999 10.0637 13.6999 12.6718V14.964H10.918V17.9722H13.6999V25.2464H17.1197V17.9722L19.6745 17.9713Z" fill="white"/>
</svg>
