<svg width="59" height="61" viewBox="0 0 59 61" fill="none" xmlns="http://www.w3.org/2000/svg">
<path d="M58.7462 28.556L56.1269 29.2262L53.982 29.7776C53.4935 31.9098 52.6643 33.9461 51.5275 35.8054L52.5876 37.61L37.8853 44.0111C37.7581 43.3053 37.5193 42.6252 37.1784 41.9971C36.6529 41.0082 35.8659 40.1886 34.9063 39.6307V39.6272L34.6528 39.4841C37.8223 39.4868 40.9 38.4014 43.3873 36.4036C45.8747 34.4058 47.626 31.6127 48.3578 28.4765C49.0896 25.3403 48.7589 22.0447 47.4193 19.1235C46.0797 16.2022 43.8097 13.8264 40.9768 12.3807C38.144 10.935 34.9142 10.5041 31.8105 11.1578C28.7068 11.8115 25.911 13.5115 23.8758 15.9825C21.8406 18.4536 20.6852 21.5509 20.5968 24.7729C20.5084 27.9949 21.492 31.153 23.3885 33.7356C23.186 33.6763 22.9905 33.6239 22.7948 33.5821C20.7321 33.1109 19.2391 33.4634 16.974 34.2975C16.2572 32.8626 15.7133 31.345 15.354 29.7776L13.2089 29.2262L10.5898 28.556C10.2877 26.3094 10.2877 24.0315 10.5898 21.7849L13.2085 21.1147L15.3536 20.5634C15.8434 18.4317 16.6723 16.3956 17.8075 14.5356L16.6748 12.6055L15.2883 10.25C15.9618 9.34797 16.6946 8.49325 17.4815 7.69173C18.2676 6.89182 19.107 6.14788 19.9936 5.46517L22.3137 6.87142L24.2116 8.02325C26.04 6.86842 28.0424 6.02653 30.1389 5.53114L30.6812 3.34618L31.3401 0.686611C33.5479 0.375947 35.7873 0.375947 37.995 0.686611L38.6574 3.34677L39.1962 5.53173C41.2932 6.02581 43.2957 6.86779 45.1236 8.02384L47.0215 6.872L49.3416 5.46575C51.1178 6.83428 52.701 8.44404 54.0471 10.25L52.6643 12.6055L51.5279 14.5356C52.6633 16.3956 53.4924 18.4316 53.9824 20.5634L56.1274 21.1147L58.7462 21.7849C59.0481 24.0315 59.0481 26.3094 58.7462 28.556ZM12.7555 58.1082L11.9283 55.2672C11.9183 55.2375 11.9102 55.2072 11.9042 55.1765L7.17134 38.9431C7.16788 38.9361 7.16788 38.9257 7.16454 38.9187L6.55656 36.8245C6.51853 36.7018 6.43473 36.599 6.3231 36.5384C6.21148 36.4777 6.08093 36.4639 5.95942 36.4999L0.416647 38.1683C0.398679 38.1752 0.380324 38.181 0.36168 38.1857C0.242421 38.2238 0.14262 38.3079 0.0837344 38.42C0.0293444 38.5249 0.0136485 38.6461 0.0394844 38.7618L0.0497403 38.7969L6.25845 60.1047C6.29566 60.2287 6.37953 60.3328 6.4918 60.3943C6.54692 60.4249 6.60746 60.4441 6.66991 60.4507C6.73236 60.4573 6.79548 60.4512 6.8556 60.4328L12.4054 58.761L12.4672 58.74C12.5799 58.7019 12.6735 58.6205 12.7279 58.5131C12.7858 58.4067 12.8018 58.2819 12.7725 58.164C12.7657 58.1466 12.7623 58.1292 12.7555 58.1082ZM58.2687 40.4129C58.0569 39.9695 57.7606 39.5733 57.3969 39.2473C56.5868 38.5317 55.4302 38.2316 54.1398 38.804H54.1364V38.8075L37.954 45.8504C37.8735 46.6246 37.6387 47.374 37.2641 48.0529C36.8387 48.8339 36.2274 49.4939 35.4863 49.9725C34.7365 50.4551 33.8646 50.705 32.9774 50.6916C32.1387 50.6747 31.318 50.4417 30.592 50.0143L22.4065 45.3477C22.2122 45.2352 22.0694 45.0491 22.0094 44.8301C21.9494 44.611 21.977 44.3767 22.0861 44.1782C22.1953 43.9797 22.3771 43.8331 22.5921 43.7704C22.807 43.7077 23.0376 43.7339 23.2336 43.8434L31.4192 48.5134C31.8991 48.7991 32.442 48.9576 32.9979 48.9741C33.563 48.9807 34.1176 48.8194 34.5938 48.5099C35.0925 48.1855 35.5032 47.7391 35.7882 47.2115C36.109 46.6269 36.2845 45.9715 36.2996 45.3022C36.299 45.272 36.3001 45.2417 36.3031 45.2115C36.302 44.3763 36.093 43.555 35.6955 42.8242C35.3211 42.1187 34.7615 41.5327 34.079 41.1314C27.7606 37.5295 24.6751 35.7669 22.4306 35.2579C20.4125 34.8008 18.8989 35.3868 15.9438 36.5318C15.91 36.5453 15.8959 36.5511 15.8904 36.5534C15.8789 36.5576 15.7911 36.5904 15.3364 36.7656L9.0144 39.2049C10.4593 44.1192 11.9214 49.0405 13.3357 53.9618L14.8389 53.6302C18.4564 52.838 20.9859 54.248 23.5668 55.6825C26.158 57.1275 28.8042 58.6004 32.7065 57.3997C36.0631 56.3666 40.4528 53.8745 45.9441 50.7543C49.2321 48.891 52.9079 46.8032 56.9784 44.6741L56.9989 44.6637C58.207 43.9935 58.6813 42.9011 58.6292 41.8296C58.6049 41.3372 58.4822 40.8551 58.2687 40.4125V40.4129ZM39.9652 16.8008C38.9161 15.7366 37.5806 15.0122 36.1271 14.719C34.6736 14.4258 33.1673 14.577 31.7982 15.1535C30.4291 15.73 29.2586 16.7059 28.4344 17.9582C27.6101 19.2104 27.169 20.6829 27.1668 22.1898V24.9016C26.7316 25.0757 26.3579 25.3788 26.0941 25.7715C25.8303 26.1642 25.6887 26.6285 25.6875 27.1041V29.108C25.6889 29.7352 25.9345 30.3363 26.3706 30.7798C26.8068 31.2232 27.3979 31.473 28.0146 31.4743H29.4939C29.6052 31.4744 29.7154 31.4521 29.8183 31.4088C29.9212 31.3655 30.0146 31.302 30.0933 31.222C30.1721 31.1419 30.2345 31.0469 30.2771 30.9423C30.3197 30.8376 30.3416 30.7255 30.3415 30.6123V25.6002C30.3416 25.487 30.3197 25.3749 30.2771 25.2703C30.2345 25.1657 30.1721 25.0706 30.0933 24.9906C30.0146 24.9105 29.9212 24.847 29.8183 24.8037C29.7154 24.7604 29.6052 24.7381 29.4939 24.7382H28.8623V22.1898C28.8691 20.6286 29.4838 19.1336 30.5717 18.0321C31.6597 16.9306 33.1325 16.3122 34.6677 16.3122C36.2029 16.3122 37.6757 16.9306 38.7637 18.0321C39.8517 19.1336 40.4663 20.6286 40.4731 22.1898V24.7377H39.8417C39.617 24.7382 39.4016 24.8291 39.2427 24.9907C39.0839 25.1523 38.9944 25.3712 38.9939 25.5997V30.6118C38.9944 30.8403 39.0839 31.0593 39.2427 31.2209C39.4016 31.3824 39.617 31.4734 39.8417 31.4739H40.4731V33.0724H37.0788C36.9933 32.9093 36.8846 32.76 36.7562 32.6292C36.5879 32.4574 36.3878 32.3211 36.1675 32.2283C35.9472 32.1354 35.711 32.0878 35.4726 32.0882H33.8628C33.3838 32.0921 32.9257 32.2883 32.5884 32.6341C32.251 32.98 32.0617 33.4474 32.0617 33.9345C32.0617 34.4217 32.251 34.8891 32.5884 35.2349C32.9257 35.5808 33.3838 35.777 33.8628 35.7809H35.4726C35.9539 35.78 36.4153 35.5855 36.7562 35.2399C36.8838 35.1085 36.9925 34.9592 37.0788 34.7966H41.3208C41.4322 34.7967 41.5424 34.7744 41.6453 34.7311C41.7482 34.6878 41.8416 34.6243 41.9204 34.5443C41.9991 34.4642 42.0616 34.3692 42.1042 34.2645C42.1467 34.1599 42.1686 34.0478 42.1686 33.9346V31.3096C42.4667 31.1896 42.7377 31.0091 42.9649 30.7791C43.1812 30.5598 43.3529 30.2992 43.4701 30.0124C43.5873 29.7255 43.6477 29.4179 43.6479 29.1073V27.1034C43.6468 26.6278 43.5052 26.1635 43.2414 25.7707C42.9776 25.378 42.6038 25.075 42.1686 24.9009V22.1898C42.1684 21.1882 41.9737 20.1966 41.5956 19.2718C41.2174 18.347 40.6634 17.5072 39.9652 16.8008Z" fill="url(#paint0_linear_69_12297)"/>
<defs>
<linearGradient id="paint0_linear_69_12297" x1="29.5" y1="0.453613" x2="29.5" y2="60.4533" gradientUnits="userSpaceOnUse">
<stop stop-color="#FF9D00"/>
<stop offset="1" stop-color="#FF7373"/>
</linearGradient>
</defs>
</svg>
