<svg width="39" height="39" viewBox="0 0 39 39" fill="none" xmlns="http://www.w3.org/2000/svg">
<circle cx="19.5557" cy="19.0674" r="18.75" stroke="#C1C1C1" stroke-width="0.5"/>
<path d="M29.4462 24.4834L27.0106 22.0464C26.3689 21.3713 25.1915 21.0381 24.5104 21.7137L22.9905 23.2335C22.237 23.7689 21.4753 23.2794 20.8607 22.7349L15.6503 17.5264C14.9381 16.8136 14.7098 15.8379 15.1517 15.3956L16.6715 13.8762C17.3489 13.1946 17.0134 12.019 16.3388 11.376L14.1543 9.1911C13.36 8.39635 12.2614 8.2506 11.6541 8.85881C9.57605 10.6674 8.02505 12.7322 8.70338 15.9268C9.19424 18.2951 10.3889 20.4601 12.1308 22.1381L16.5001 26.5074C18.8138 28.8211 21.6793 30.0563 24.1744 30.0563C26.5981 30.197 28.3127 28.602 29.7808 26.9822C30.4563 26.3016 30.1213 25.1269 29.4462 24.4834Z" fill="#FC8600"/>
<path d="M23.6644 8.06738C23.5428 8.06738 23.4263 8.11567 23.3403 8.20163C23.2543 8.28758 23.2061 8.40416 23.2061 8.52572C23.2061 8.64727 23.2543 8.76385 23.3403 8.84981C23.4263 8.93576 23.5428 8.98405 23.6644 8.98405C25.2524 8.98587 26.7748 9.61757 27.8976 10.7405C29.0204 11.8635 29.6519 13.386 29.6534 14.974C29.6534 15.0956 29.7017 15.2121 29.7877 15.2981C29.8736 15.3841 29.9902 15.4323 30.1118 15.4323C30.2333 15.4323 30.3499 15.3841 30.4359 15.2981C30.5218 15.2121 30.5701 15.0956 30.5701 14.974C30.5683 13.143 29.8402 11.3874 28.5455 10.0926C27.2509 8.7978 25.4954 8.06945 23.6644 8.06738Z" fill="#323956"/>
<path d="M22.4202 11.5412C23.6596 11.5429 24.8477 12.036 25.7241 12.9123C26.6005 13.7887 27.0935 14.9768 27.0952 16.2162C27.0952 16.3377 27.1435 16.4543 27.2295 16.5403C27.3154 16.6262 27.432 16.6745 27.5536 16.6745C27.6751 16.6745 27.7917 16.6262 27.8777 16.5403C27.9636 16.4543 28.0119 16.3377 28.0119 16.2162C28.01 14.7338 27.4202 13.3126 26.372 12.2644C25.3238 11.2162 23.9027 10.6265 22.4202 10.6245C22.2987 10.6245 22.1821 10.6728 22.0962 10.7588C22.0102 10.8447 21.9619 10.9613 21.9619 11.0828C21.9619 11.2044 22.0102 11.321 22.0962 11.4069C22.1821 11.4929 22.2987 11.5412 22.4202 11.5412Z" fill="#323956"/>
<path d="M21.6605 14.5802C22.2959 14.581 22.9051 14.8337 23.3543 15.283C23.8036 15.7323 24.0564 16.3415 24.0571 16.9769C24.0571 17.0984 24.1054 17.215 24.1913 17.301C24.2773 17.3869 24.3939 17.4352 24.5154 17.4352C24.637 17.4352 24.7536 17.3869 24.8395 17.301C24.9255 17.215 24.9738 17.0984 24.9738 16.9769C24.9728 16.0984 24.6234 15.2562 24.0023 14.6351C23.3811 14.0139 22.5389 13.6645 21.6605 13.6636C21.5389 13.6636 21.4223 13.7119 21.3364 13.7978C21.2504 13.8838 21.2021 14.0003 21.2021 14.1219C21.2021 14.2435 21.2504 14.36 21.3364 14.446C21.4223 14.532 21.5389 14.5802 21.6605 14.5802Z" fill="#323956"/>
</svg>
