<svg width="32" height="33" viewBox="0 0 32 33" fill="none" xmlns="http://www.w3.org/2000/svg">
<path d="M16 1.35303C24.5426 1.35304 31.4678 8.27821 31.4678 16.8208C31.4678 25.3634 24.5426 32.2886 16 32.2886C7.45741 32.2886 0.532244 25.3634 0.532227 16.8208C0.532227 8.2782 7.4574 1.35303 16 1.35303Z" stroke="white"/>
<path fill-rule="evenodd" clip-rule="evenodd" d="M23.9841 24.8047H20.968V19.5263C20.968 18.0785 20.3293 17.2713 19.184 17.2713C17.9377 17.2713 17.1978 18.1158 17.1978 19.5263V24.8047H14.1817V15.0024H17.1978V16.103C17.5303 15.5901 17.9867 15.1693 18.5249 14.8794C19.0631 14.5895 19.6657 14.4395 20.2769 14.4441C22.406 14.4441 23.9841 15.749 23.9841 18.436V24.8047ZM10.7451 13.434C10.3776 13.4368 10.0176 13.3303 9.71071 13.1282C9.40381 12.9261 9.16385 12.6374 9.02128 12.2987C8.87871 11.96 8.83994 11.5865 8.90991 11.2257C8.97987 10.865 9.1554 10.5332 9.41424 10.2724C9.67309 10.0115 10.0036 9.83356 10.3638 9.76083C10.724 9.6881 11.0977 9.72395 11.4374 9.86392C11.7772 10.0039 12.0677 10.2417 12.2722 10.547C12.4766 10.8523 12.5858 11.2113 12.5858 11.5788C12.5869 11.8215 12.5401 12.0619 12.4481 12.2865C12.3562 12.5111 12.2208 12.7155 12.0499 12.8878C11.8789 13.06 11.6757 13.1969 11.4518 13.2906C11.2279 13.3843 10.9878 13.4331 10.7451 13.434ZM8.90348 24.8047H12.6736V15.0024H8.90348V24.8047Z" fill="white"/>
</svg>
