<svg width="39" height="39" viewBox="0 0 39 39" fill="none" xmlns="http://www.w3.org/2000/svg">
<circle cx="19.9443" cy="19.0674" r="18.75" stroke="#C1C1C1" stroke-width="0.5"/>
<g clip-path="url(#clip0_0_1)">
<g clip-path="url(#clip1_0_1)">
<path d="M30.1404 17.0948V26.7971C30.1404 28.0045 29.1607 28.9799 27.9576 28.9799H11.9475C10.74 28.9799 9.76465 28.0002 9.76465 26.7971V17.0948L18.41 8.47524C19.2607 7.62446 20.64 7.62446 21.4908 8.47524L30.1404 17.0948Z" fill="#C8C6C1"/>
<path d="M13.6525 10.2715H26.2682C27.4756 10.2715 28.451 11.2469 28.451 12.4543V25.0656C28.451 26.273 27.4756 27.2484 26.2682 27.2484H13.6525C12.4451 27.2484 11.4697 26.273 11.4697 25.0656V12.4543C11.4697 11.2469 12.4494 10.2715 13.6525 10.2715Z" fill="#F5F5F5"/>
<path d="M30.1404 17.0947V26.7971C30.1404 28.0045 29.1607 28.9799 27.9576 28.9799H11.9475C10.74 28.9799 9.76465 28.0002 9.76465 26.7971V17.1205L19.9396 27.2955L30.1404 17.0947Z" fill="#F4B267"/>
<path d="M29.508 28.3354C29.1643 28.6835 28.7045 28.9155 28.1889 28.9714L11.8693 28.98C11.2936 28.9585 10.7736 28.7179 10.3955 28.3354L18.4049 20.3261C19.2557 19.4753 20.6393 19.4753 21.4943 20.3261L29.508 28.3354Z" fill="#FC8600"/>
<path d="M19.9531 11.2217C21.9078 11.2218 23.4922 12.807 23.4922 14.7617C23.4921 16.7164 21.9078 18.3007 19.9531 18.3008C17.9984 18.3008 16.4132 16.7164 16.4131 14.7617C16.4131 12.8069 17.9983 11.2217 19.9531 11.2217Z" stroke="#AAAAAA" stroke-width="0.2"/>
<path d="M19.7592 17.0733L19.3768 15.3374L17.6408 14.955C17.1639 14.8476 17.1252 14.1858 17.585 14.0226L21.4178 12.6776C21.8002 12.5444 22.1697 12.914 22.0365 13.2964L20.6916 17.1292C20.5283 17.5933 19.8623 17.5503 19.7592 17.0733Z" fill="#FC8600"/>
</g>
</g>
<defs>
<clipPath id="clip0_0_1">
<rect width="22" height="22" fill="white" transform="translate(8.94434 6.56738)"/>
</clipPath>
<clipPath id="clip1_0_1">
<rect width="22" height="22" fill="white" transform="translate(8.95215 7.40967)"/>
</clipPath>
</defs>
</svg>
