<svg width="56" height="54" viewBox="0 0 56 54" fill="none" xmlns="http://www.w3.org/2000/svg">
<path d="M5.84687 8.82423C8.20605 8.82423 10.1185 6.91174 10.1185 4.55256C10.1185 2.19338 8.20605 0.280884 5.84687 0.280884C3.48769 0.280884 1.5752 2.19338 1.5752 4.55256C1.5752 6.91174 3.48769 8.82423 5.84687 8.82423Z" fill="url(#paint0_linear_69_12302)"/>
<path d="M34.0412 8.82423C36.4004 8.82423 38.3129 6.91174 38.3129 4.55256C38.3129 2.19338 36.4004 0.280884 34.0412 0.280884C31.682 0.280884 29.7695 2.19338 29.7695 4.55256C29.7695 6.91174 31.682 8.82423 34.0412 8.82423Z" fill="url(#paint1_linear_69_12302)"/>
<path d="M22.0793 53.2496C24.4385 53.2496 26.351 51.3371 26.351 48.9779C26.351 46.6187 24.4385 44.7062 22.0793 44.7062C19.7201 44.7062 17.8076 46.6187 17.8076 48.9779C17.8076 51.3371 19.7201 53.2496 22.0793 53.2496Z" fill="url(#paint2_linear_69_12302)"/>
<path d="M50.2726 53.2496C52.6318 53.2496 54.5443 51.3371 54.5443 48.9779C54.5443 46.6187 52.6318 44.7062 50.2726 44.7062C47.9135 44.7062 46.001 46.6187 46.001 48.9779C46.001 51.3371 47.9135 53.2496 50.2726 53.2496Z" fill="url(#paint3_linear_69_12302)"/>
<path d="M42.3365 46.6628C42.0033 46.3296 41.465 46.3296 41.1319 46.6628C40.7987 46.996 40.7987 47.5342 41.1319 47.8674L41.3796 48.1237H27.9922C28.0349 48.4056 28.0605 48.6876 28.0605 48.978C28.0605 49.2685 28.0349 49.5504 27.9922 49.8324H41.3796L41.1319 50.0801C40.7987 50.4133 40.7987 50.9515 41.1319 51.2847C41.2942 51.4556 41.5078 51.541 41.7299 51.541C41.952 51.541 42.1656 51.4556 42.3365 51.2933L44.0451 49.5846C44.3783 49.2514 44.3783 48.7132 44.0451 48.38L42.3365 46.6628Z" fill="url(#paint4_linear_69_12302)"/>
<path d="M37.3985 14.3517L34.7586 16.3082C33.5455 15.5307 32.1871 14.9583 30.7262 14.6422L30.2306 11.3872H25.8821L25.3951 14.6422C23.9342 14.9583 22.5758 15.5307 21.3627 16.3082L18.7228 14.3517L15.6472 17.4273L17.6036 20.0672C16.8261 21.2804 16.2537 22.6473 15.9291 24.0997L12.6826 24.5867V28.9352L15.9376 29.4222C16.2537 30.8831 16.8261 32.2415 17.6121 33.4547L15.6557 36.0945L18.7313 39.1701L21.3712 37.2137C22.5844 37.9912 23.9427 38.5636 25.4037 38.8797L25.8906 42.1432H30.2392L30.7262 38.8882C32.1871 38.5721 33.5455 37.9997 34.7586 37.2223L37.3985 39.1787L40.4741 36.1031L38.5177 33.4632C39.2951 32.25 39.8675 30.8916 40.1922 29.4307L43.4387 28.9438V24.5952L40.1836 24.1082C39.8675 22.6473 39.2951 21.2889 38.5091 20.0758L40.4656 17.4359L37.3985 14.3517ZM28.0606 32.6345C24.8227 32.6345 22.1914 30.0031 22.1914 26.7652C22.1914 23.5273 24.8227 20.8959 28.0606 20.8959C31.2986 20.8959 33.9299 23.5273 33.9299 26.7652C33.9299 30.0031 31.3071 32.6345 28.0606 32.6345Z" fill="url(#paint5_linear_69_12302)"/>
<path d="M14.1433 46.6628C13.8101 46.3296 13.2719 46.3296 12.9387 46.6628C12.6055 46.996 12.6055 47.5342 12.9387 47.8674L13.1864 48.1237H12.6824C7.02667 48.1237 2.43035 43.5274 2.43035 37.8717C2.43035 32.8055 6.12962 28.5936 10.9737 27.7734V26.0477C5.18985 26.8849 0.72168 31.8571 0.72168 37.8717C0.72168 44.4671 6.0869 49.8323 12.6824 49.8323H13.1864L12.9387 50.0801C12.6055 50.4133 12.6055 50.9515 12.9387 51.2847C13.101 51.4556 13.3146 51.541 13.5367 51.541C13.7588 51.541 13.9724 51.4556 14.1433 51.2933L15.8519 49.5846C16.1851 49.2514 16.1851 48.7132 15.8519 48.38L14.1433 46.6628Z" fill="url(#paint6_linear_69_12302)"/>
<path d="M25.1472 5.40688L24.8994 5.65463C24.5662 5.98782 24.5662 6.52606 24.8994 6.85925C25.0618 7.03011 25.2753 7.11555 25.4975 7.11555C25.7196 7.11555 25.9332 7.03011 26.104 6.86779L27.8127 5.15912C27.8896 5.08223 27.9579 4.98825 28.0007 4.87719C28.0861 4.67215 28.0861 4.43294 28.0007 4.2279C27.9579 4.12538 27.8981 4.0314 27.8127 3.94597L26.104 2.2373C25.7709 1.90411 25.2326 1.90411 24.8994 2.2373C24.5662 2.57049 24.5662 3.10872 24.8994 3.44191L25.1472 3.69821H11.7598C11.8025 3.98014 11.8281 4.26207 11.8281 4.55254C11.8281 4.84302 11.8025 5.12495 11.7598 5.40688H25.1472Z" fill="url(#paint7_linear_69_12302)"/>
<path d="M45.1465 25.7571V27.4829C50.9303 26.6456 55.3985 21.6734 55.3985 15.6589C55.3985 9.06341 50.0333 3.69819 43.4378 3.69819H39.9521C39.9949 3.98012 40.0205 4.26205 40.0205 4.55252C40.0205 4.843 39.9949 5.12493 39.9521 5.40686H43.4378C49.0935 5.40686 53.6898 10.0032 53.6898 15.6589C53.6898 20.7251 49.9906 24.9369 45.1465 25.7571Z" fill="url(#paint8_linear_69_12302)"/>
<defs>
<linearGradient id="paint0_linear_69_12302" x1="5.84687" y1="0.280884" x2="5.84687" y2="8.82423" gradientUnits="userSpaceOnUse">
<stop stop-color="#FF9D00"/>
<stop offset="1" stop-color="#FF7373"/>
</linearGradient>
<linearGradient id="paint1_linear_69_12302" x1="34.0412" y1="0.280884" x2="34.0412" y2="8.82423" gradientUnits="userSpaceOnUse">
<stop stop-color="#FF9D00"/>
<stop offset="1" stop-color="#FF7373"/>
</linearGradient>
<linearGradient id="paint2_linear_69_12302" x1="22.0793" y1="44.7062" x2="22.0793" y2="53.2496" gradientUnits="userSpaceOnUse">
<stop stop-color="#FF9D00"/>
<stop offset="1" stop-color="#FF7373"/>
</linearGradient>
<linearGradient id="paint3_linear_69_12302" x1="50.2726" y1="44.7062" x2="50.2726" y2="53.2496" gradientUnits="userSpaceOnUse">
<stop stop-color="#FF9D00"/>
<stop offset="1" stop-color="#FF7373"/>
</linearGradient>
<linearGradient id="paint4_linear_69_12302" x1="36.1436" y1="46.4129" x2="36.1436" y2="51.541" gradientUnits="userSpaceOnUse">
<stop stop-color="#FF9D00"/>
<stop offset="1" stop-color="#FF7373"/>
</linearGradient>
<linearGradient id="paint5_linear_69_12302" x1="28.0606" y1="11.3872" x2="28.0606" y2="42.1432" gradientUnits="userSpaceOnUse">
<stop stop-color="#FF9D00"/>
<stop offset="1" stop-color="#FF7373"/>
</linearGradient>
<linearGradient id="paint6_linear_69_12302" x1="8.41176" y1="26.0477" x2="8.41176" y2="51.541" gradientUnits="userSpaceOnUse">
<stop stop-color="#FF9D00"/>
<stop offset="1" stop-color="#FF7373"/>
</linearGradient>
<linearGradient id="paint7_linear_69_12302" x1="19.9123" y1="1.9874" x2="19.9123" y2="7.11555" gradientUnits="userSpaceOnUse">
<stop stop-color="#FF9D00"/>
<stop offset="1" stop-color="#FF7373"/>
</linearGradient>
<linearGradient id="paint8_linear_69_12302" x1="47.6753" y1="3.69819" x2="47.6753" y2="27.4829" gradientUnits="userSpaceOnUse">
<stop stop-color="#FF9D00"/>
<stop offset="1" stop-color="#FF7373"/>
</linearGradient>
</defs>
</svg>
