<svg width="56" height="64" viewBox="0 0 56 64" fill="none" xmlns="http://www.w3.org/2000/svg">
<path d="M3.76812 44.6909L3.77093 44.647C4.2851 36.6383 15.4994 34.7035 15.6086 34.6855L15.6273 34.6825L15.6458 34.6792C16.3937 34.5481 17.1221 34.3236 17.814 34.011L12.5864 41.2419C11.5801 42.6344 11.7278 43.4222 12.8327 43.4222C13.2844 43.4056 13.7313 43.3243 14.1599 43.1808C15.9222 42.6206 17.7278 42.2072 19.5582 41.9447C19.6509 41.9333 19.7392 41.9186 19.8286 41.9048C20.3085 42.3834 20.7593 42.8901 21.1789 43.4222H23.8896C23.328 42.5871 22.706 41.7943 22.0286 41.05C22.6893 40.485 22.9381 39.6515 22.6197 38.4774L20.7932 31.7427C21.1512 31.3177 21.471 30.862 21.749 30.3808C22.5493 31.2886 23.5351 32.014 24.6399 32.5081C25.7446 33.0022 26.9425 33.2535 28.1527 33.2449C28.2265 33.2449 28.3 33.2441 28.3748 33.2424L28.3946 33.2426C28.6609 33.2426 31.5623 33.162 34.4065 30.004C34.7294 30.6248 35.1196 31.2083 35.5701 31.744L33.7439 38.4774C33.4255 39.6515 33.6743 40.485 34.3351 41.05C33.6576 41.7943 33.0356 42.5871 32.474 43.4222H35.1997C35.6174 42.891 36.0658 42.3848 36.5426 41.906C36.6296 41.9193 36.7153 41.9336 36.8054 41.9447C38.6358 42.2072 40.4414 42.6206 42.2037 43.1808C42.6323 43.3243 43.0792 43.4056 43.5309 43.4222C44.6358 43.4222 44.7835 42.6344 43.7772 41.2419L38.5503 34.0119C39.2415 34.3241 39.9691 34.5482 40.7161 34.6792L40.7347 34.6825L40.7533 34.6855C40.8665 34.7037 52.0755 36.5942 52.5927 44.647L52.5956 44.6927L52.6005 44.7382C52.6116 44.843 53.7182 56.366 53.694 61.3341L49.3762 61.3344L49.1386 63.5052H53.694C54.2678 63.5052 54.8182 63.2779 55.2248 62.8731C55.6314 62.4683 55.861 61.9189 55.8635 61.3451C55.8884 56.196 54.7577 44.5078 54.7577 44.5078C54.1234 34.6317 41.0968 32.5418 41.0968 32.5418C40.3966 32.4188 39.7201 32.1866 39.0919 31.8538C40.4354 31.1105 41.7166 30.2598 42.923 29.3102C43.1164 29.1587 43.253 28.9464 43.3108 28.7076C44.1137 25.3958 49.3271 0.895739 28.0866 0.00702396C27.6806 -0.00723486 27.2741 0.000219143 26.8689 0.0293541C22.4474 0.315254 7.7561 3.1822 13.0437 29.0019C13.0959 29.2588 13.2387 29.4885 13.4462 29.6488C14.6038 30.5151 15.8348 31.2787 17.1253 31.9307C16.5376 32.2223 15.9112 32.428 15.2651 32.5418C15.2651 32.5418 2.23998 34.6317 1.60596 44.5078C1.60596 44.5078 0.478519 56.3328 0.500312 61.3474C0.502755 61.921 0.732481 62.4702 1.13914 62.8746C1.54581 63.2791 2.09623 63.5059 2.66979 63.5052H7.22505L7.08786 62.2522L7.02233 61.6536L6.98774 61.3376L2.66976 61.338C2.64869 56.4999 3.75238 44.8409 3.76351 44.7346L3.76812 44.6909ZM28.2552 10.1454C30.8597 13.9531 34.8639 16.4646 37.1922 17.6946C35.0265 30.6913 28.7787 31.0613 28.4035 31.0713L28.3795 31.0706L28.3261 31.0718C28.2854 31.0727 28.2455 31.0729 28.2054 31.0732L28.1527 31.0736C28.1392 31.0736 28.1263 31.0723 28.1129 31.0723C25.167 31.0562 22.9136 29.2788 21.2261 25.6369C20.1537 23.1632 19.4435 20.5478 19.1173 17.8714C22.9107 16.3388 26.1132 13.6311 28.2552 10.1454Z" fill="url(#paint0_linear_69_12301)"/>
<defs>
<linearGradient id="paint0_linear_69_12301" x1="28.182" y1="0" x2="28.182" y2="63.5052" gradientUnits="userSpaceOnUse">
<stop stop-color="#FF9D00"/>
<stop offset="1" stop-color="#FF7373"/>
</linearGradient>
</defs>
</svg>
