<svg width="50" height="51" viewBox="0 0 50 51" fill="none" xmlns="http://www.w3.org/2000/svg">
<circle cx="25" cy="25.9692" r="25" fill="#FC8600"/>
<path d="M19.1514 32.3332C21.7434 30.5572 23.8154 28.8212 25.3674 27.1252C26.9354 25.4132 27.7194 23.8292 27.7194 22.3732C27.7194 21.5092 27.5034 20.8212 27.0714 20.3092C26.6554 19.7972 25.9754 19.5412 25.0314 19.5412C24.0554 19.5412 23.3194 19.8612 22.8234 20.5012C22.3274 21.1252 22.0474 22.0212 21.9834 23.1892H19.3194C19.4314 21.2532 20.0234 19.7732 21.0954 18.7492C22.1834 17.7252 23.5674 17.2132 25.2474 17.2132C26.8954 17.2132 28.1834 17.6532 29.1114 18.5332C30.0554 19.3972 30.5274 20.5972 30.5274 22.1332C30.5274 23.3652 30.1434 24.6132 29.3754 25.8772C28.6234 27.1412 27.6634 28.3092 26.4954 29.3812C25.3274 30.4372 24.1194 31.3492 22.8714 32.1172H30.9114V34.3492H19.1514V32.3332Z" fill="white"/>
</svg>
