<svg width="50" height="51" viewBox="0 0 50 51" fill="none" xmlns="http://www.w3.org/2000/svg">
<circle cx="25" cy="25.9697" r="25" fill="#FC8600"/>
<path d="M25.575 16.9977C26.695 16.9977 27.655 17.1977 28.455 17.5977C29.255 17.9817 29.855 18.5177 30.255 19.2057C30.671 19.8937 30.879 20.6617 30.879 21.5097C30.879 22.5817 30.575 23.4777 29.967 24.1977C29.375 24.9017 28.535 25.3257 27.447 25.4697V25.5897C28.615 25.9257 29.527 26.4297 30.183 27.1017C30.855 27.7577 31.191 28.6697 31.191 29.8377C31.191 31.2617 30.719 32.4217 29.775 33.3177C28.831 34.1977 27.479 34.6377 25.719 34.6377C23.911 34.6377 22.455 34.1817 21.351 33.2697C20.247 32.3417 19.615 30.9737 19.455 29.1657H22.167C22.263 30.1257 22.607 30.8937 23.199 31.4697C23.791 32.0297 24.591 32.3097 25.599 32.3097C26.543 32.3097 27.263 32.0617 27.759 31.5657C28.271 31.0697 28.527 30.4297 28.527 29.6457C28.527 28.7017 28.159 27.9817 27.423 27.4857C26.703 26.9897 25.655 26.7417 24.279 26.7417H23.631V24.4857H24.279C26.887 24.5177 28.191 23.6297 28.191 21.8217C28.191 21.0377 27.951 20.4217 27.471 19.9737C26.991 19.5257 26.335 19.3017 25.503 19.3017C24.671 19.3017 23.975 19.5577 23.415 20.0697C22.855 20.5657 22.519 21.2937 22.407 22.2537H19.719C19.831 20.5897 20.391 19.3017 21.399 18.3897C22.407 17.4617 23.799 16.9977 25.575 16.9977Z" fill="white"/>
</svg>
