<svg width="50" height="51" viewBox="0 0 50 51" fill="none" xmlns="http://www.w3.org/2000/svg">
<circle cx="25" cy="25.97" r="25" fill="#FC8600"/>
<path d="M30.9957 19.686H22.6197V24.726C23.0037 24.23 23.5477 23.838 24.2517 23.55C24.9557 23.246 25.7317 23.094 26.5797 23.094C27.7637 23.094 28.7477 23.35 29.5317 23.862C30.3157 24.358 30.8917 25.022 31.2597 25.854C31.6437 26.686 31.8357 27.606 31.8357 28.614C31.8357 30.39 31.3397 31.83 30.3477 32.934C29.3557 34.022 27.9157 34.566 26.0277 34.566C24.2517 34.566 22.8197 34.094 21.7317 33.15C20.6437 32.206 20.0517 30.95 19.9557 29.382H22.6437C22.7877 30.246 23.1397 30.926 23.6997 31.422C24.2757 31.918 25.0037 32.166 25.8837 32.166C26.9717 32.166 27.7877 31.838 28.3317 31.182C28.8757 30.526 29.1477 29.654 29.1477 28.566C29.1477 27.542 28.8677 26.742 28.3077 26.166C27.7477 25.574 26.9477 25.278 25.9077 25.278C25.1717 25.278 24.5237 25.438 23.9637 25.758C23.4197 26.078 23.0197 26.502 22.7637 27.03H20.0997V17.262H30.9957V19.686Z" fill="white"/>
</svg>
