<svg width="234" height="55" viewBox="0 0 234 55" fill="none" xmlns="http://www.w3.org/2000/svg">
<path d="M30.5632 26.7652C30.5399 26.7885 30.5167 26.8117 30.4973 26.8349C30.2689 26.529 30.0132 26.2501 29.7383 25.9829C30.0713 26.1804 30.3618 26.4205 30.5671 26.7613L30.5632 26.7652Z" fill="#595959"/>
<path d="M9.92055 21.6765C8.92136 21.8895 8.32495 22.4394 8.21264 23.2217C8.16617 23.5509 8.23975 23.8337 8.42952 24.0931C8.8168 24.616 9.33963 24.9839 9.92055 25.375C9.95153 24.7864 9.95153 24.2519 10.0367 23.7252C10.4356 21.266 11.9228 19.7479 14.2 18.9191C15.5942 18.4117 17.0465 18.1755 18.5143 18.16C22.724 18.1213 26.9337 18.1484 31.1473 18.1484C31.1783 18.2839 31.0505 18.311 30.9808 18.3653C28.5603 20.3055 26.1398 22.2381 23.7193 24.1822C23.5644 24.3061 23.4095 24.3371 23.2236 24.3371C22.0114 24.3371 20.8031 24.3294 19.5909 24.3371C19.1146 24.3371 18.6382 24.3642 18.1812 24.5269C17.9295 24.616 17.7049 24.7476 17.701 25.0613C17.701 25.3518 17.8675 25.5377 18.1231 25.6539C18.4213 25.7894 18.7312 25.863 19.0565 25.8669C20.4855 25.8746 21.9146 25.8746 23.3437 25.8862C25.1251 25.9017 26.895 26.0102 28.6029 26.5678C30.427 27.1604 31.9103 28.1634 32.6887 29.9991C32.8591 30.4019 32.9831 30.8202 33.0605 31.2539C33.0837 31.3856 33.0876 31.5405 33.3084 31.5057C33.777 31.4321 34.2533 31.3856 34.6871 31.1649C35.1712 30.9209 35.2757 30.6575 35.1053 30.1308C35.0821 30.0572 35.117 30.0379 35.1828 30.0495C35.7598 30.8976 35.5894 31.5328 34.6406 31.9007C33.9358 32.1757 33.2038 32.3461 32.4331 32.3615C27.9794 32.4545 23.6612 31.5947 19.3857 30.4716C15.8033 29.5305 12.3023 28.3455 8.97558 26.6879C7.77889 26.0915 6.61318 25.437 5.60625 24.5346C5.32741 24.2829 5.0718 24.0118 4.88204 23.6865C4.51799 23.0591 4.63805 22.5479 5.26157 22.1838C5.92382 21.7966 6.6674 21.7152 7.41097 21.6339C7.52716 21.6223 7.64334 21.6184 7.75952 21.6107C8.43726 21.5564 9.115 21.599 9.79274 21.5874C9.85471 21.5874 9.92442 21.5874 9.9128 21.6842L9.92055 21.6765Z" fill="#122533"/>
<path d="M27.0847 34.1933C28.8623 34.3211 30.6322 34.3327 32.3904 33.9803C32.6267 33.9338 32.8629 33.8719 33.1495 33.8022C33.0798 34.7123 32.8319 35.5372 32.3982 36.3001C31.5152 37.8609 30.0938 38.7129 28.4363 39.228C27.0498 39.6578 25.6169 39.836 24.1723 39.8437C20.1795 39.8631 16.1905 39.8515 12.1977 39.8554C12.1241 39.8554 12.0544 39.8476 11.9033 39.8399C14.4942 37.7602 17.0154 35.7347 19.5405 33.7092C19.6954 33.4885 19.9084 33.6318 20.0982 33.6163C22.418 33.9106 24.7533 34.0113 27.0847 34.1894V34.1933Z" fill="#122533"/>
<path d="M15.2883 31.6487C16.4192 31.9817 17.55 32.3187 18.6848 32.6517C18.3633 32.8105 18.0457 32.7021 17.7359 32.6246C17.5926 32.5898 17.4455 32.5007 17.3796 32.6827C17.3215 32.8492 17.3912 33.008 17.5771 33.0894C17.7243 33.1552 17.9567 33.0971 17.976 33.3566C16.9962 33.2326 16.0474 32.9848 15.1102 32.6711C14.8507 32.5239 14.7539 32.2257 14.5138 32.0476C14.3433 31.9236 14.4983 31.6448 14.7655 31.5906C14.9436 31.5557 15.114 31.6099 15.2883 31.6448V31.6487Z" fill="#F4A12F"/>
<path d="M27.0844 34.1934C25.6437 34.2438 24.2108 34.116 22.7778 34.0114C21.8445 33.9456 20.9112 33.872 19.9894 33.6938C19.7377 33.5041 19.9507 33.3298 20.0049 33.1516C20.0553 32.9851 20.1714 32.9812 20.307 33.0393C21.2016 33.2136 22.0924 33.3917 22.987 33.5583C24.2727 33.7984 25.5663 33.9804 26.8636 34.1353C26.9372 34.1431 27.0108 34.1702 27.0844 34.1895V34.1934Z" fill="#F6C418"/>
<path d="M15.2879 31.6489C15.0671 31.676 14.8309 31.6063 14.6256 31.7496C14.5365 31.8116 14.4513 31.9626 14.5482 31.982C14.9471 32.0595 14.9045 32.4622 15.1136 32.6714C14.0679 32.4158 13.0649 32.0478 12.0967 31.5792C12.4723 31.3778 12.5227 31.037 12.4917 30.6614C13.425 30.9906 14.3545 31.3198 15.2879 31.6451V31.6489Z" fill="#F1933E"/>
<path d="M12.4916 30.6651C12.7395 31.0485 12.5265 31.5443 12.0966 31.583C11.2601 31.2461 10.4623 30.8394 9.71094 30.3437C9.85036 30.243 10.0053 30.1578 9.89683 29.9332C9.84261 29.8247 9.88909 29.7124 10.013 29.6582C10.8573 29.9448 11.6667 30.3282 12.4916 30.6651Z" fill="#EE803E"/>
<path d="M20.3073 33.043C20.0091 33.1669 19.9084 33.3877 19.9859 33.6975C19.8387 33.7246 19.6877 33.6394 19.5405 33.7169C19.1765 33.531 18.766 33.5736 18.3826 33.469C18.247 33.4303 18.1115 33.3993 17.9759 33.3606C17.8597 33.2134 17.6932 33.2134 17.5267 33.194C17.2323 33.1592 17.2788 32.8765 17.2246 32.7022C17.1742 32.5434 17.3795 32.5008 17.5073 32.4505C17.5499 32.435 17.6235 32.4272 17.6545 32.4505C17.9643 32.6983 18.34 32.5976 18.6808 32.6557C19.2307 32.7448 19.7768 32.861 20.3035 33.043H20.3073Z" fill="#F7B320"/>
<path d="M10.0178 29.6581C9.97516 29.7472 9.90933 29.8363 9.97904 29.9409C10.2269 30.2972 10.0139 30.3475 9.71569 30.3436C8.52286 29.6659 7.46172 28.8178 6.45866 27.8883C6.44317 27.7566 6.49739 27.7372 6.60196 27.8031C7.70183 28.4963 8.87529 29.0501 10.0178 29.6581Z" fill="#E96A41"/>
<path d="M9.92085 21.6764C9.39803 21.537 8.86745 21.6106 8.33688 21.6028C8.14711 21.6028 7.95735 21.6028 7.76758 21.6028C8.54601 21.4441 9.32832 21.5447 10.1648 21.5525C10.0796 21.6958 10.0099 21.7074 9.92085 21.6764Z" fill="#9A9A9A"/>
<path d="M6.59786 27.8032C6.53202 27.8032 6.48167 27.8265 6.45456 27.8884C6.29965 27.7606 6.14087 27.6367 6.05566 27.4353C6.24543 27.5437 6.45456 27.6251 6.59786 27.8032Z" fill="#D6756F"/>
<path d="M20.1102 48.1199C30.6699 48.1199 39.2302 39.5596 39.2302 28.9999C39.2302 18.4402 30.6699 9.87988 20.1102 9.87988C9.55055 9.87988 0.990234 18.4402 0.990234 28.9999C0.990234 39.5596 9.55055 48.1199 20.1102 48.1199Z" stroke="#FC8600" stroke-width="1.16184" stroke-miterlimit="10"/>
<path d="M45.992 30.0378C45.0703 29.3446 44.5746 28.3493 44.5049 27.0519H48.1647C48.1995 27.4934 48.3273 27.811 48.552 28.0124C48.7727 28.2138 49.0593 28.3144 49.4117 28.3144C49.7254 28.3144 49.9849 28.2331 50.1901 28.0743C50.3954 27.9155 50.4961 27.6909 50.4961 27.4082C50.4961 27.0403 50.3257 26.7537 49.9888 26.5523C49.6518 26.3509 49.1019 26.1263 48.3428 25.8746C47.5373 25.5996 46.8867 25.3363 46.3909 25.0807C45.8952 24.8251 45.4615 24.4533 45.0935 23.9575C44.7256 23.4657 44.5436 22.8189 44.5436 22.025C44.5436 21.2311 44.7411 20.5262 45.14 19.9492C45.5389 19.3722 46.085 18.9384 46.786 18.6402C47.4869 18.342 48.2809 18.1948 49.1677 18.1948C50.6045 18.1948 51.7509 18.5356 52.6106 19.2211C53.4704 19.9027 53.9274 20.8632 53.9855 22.0986H50.2521C50.2405 21.7191 50.1282 21.4325 49.9113 21.2427C49.6944 21.0529 49.4195 20.9561 49.0787 20.9561C48.8231 20.9561 48.61 21.0336 48.4474 21.1885C48.2847 21.3434 48.2034 21.5642 48.2034 21.8469C48.2034 22.0831 48.2925 22.2884 48.4745 22.4626C48.6565 22.6331 48.8811 22.7841 49.1484 22.908C49.4156 23.0319 49.8145 23.1907 50.3412 23.3805C51.1235 23.6555 51.7702 23.9227 52.2776 24.1899C52.7849 24.4571 53.2226 24.8328 53.5905 25.313C53.9584 25.7933 54.1404 26.4013 54.1404 27.1371C54.1404 27.8729 53.9545 28.5584 53.5905 29.151C53.2226 29.7435 52.692 30.216 51.9949 30.5568C51.3016 30.9015 50.4806 31.0719 49.5318 31.0719C48.095 31.0719 46.9138 30.7233 45.992 30.0301V30.0378Z" fill="#122533"/>
<path d="M63.5473 28.907H59.1672L58.5011 30.9557H54.8916L59.3957 18.3962H63.3537L67.8384 30.9557H64.2134L63.5473 28.907ZM62.6875 26.2348L61.3553 22.1722L60.0424 26.2348H62.6875Z" fill="#122533"/>
<path d="M78.2024 24.6586C77.8577 25.2821 77.3387 25.7817 76.6416 26.1535C75.9484 26.5291 75.0964 26.715 74.0933 26.715H72.3932V30.9557H68.958V18.3962H74.0895C75.0809 18.3962 75.9252 18.5744 76.6223 18.9307C77.3155 19.287 77.8383 19.7788 78.1908 20.4101C78.5393 21.0414 78.7175 21.7656 78.7175 22.5827C78.7175 23.3418 78.5432 24.035 78.2024 24.6586ZM75.2164 22.5827C75.2164 21.6688 74.7323 21.2118 73.7642 21.2118H72.3971V23.9382H73.7642C74.7323 23.9382 75.2164 23.4851 75.2164 22.5827Z" fill="#122533"/>
<path d="M83.5348 18.3962V30.9557H80.0996V18.3962H83.5348Z" fill="#122533"/>
<path d="M88.9293 21.1924V23.2411H92.8719V25.894H88.9293V28.1557H93.3986V30.9518H85.498V18.3962H93.3986V21.1924H88.9293Z" fill="#122533"/>
<path d="M106.539 30.9557H103.104L98.5299 23.9382V30.9557H95.0947V18.3962H98.5299L103.104 25.5028V18.3962H106.539V30.9557Z" fill="#122533"/>
<path d="M117.801 18.3962V21.1769H114.51V30.9557H111.074V21.1769H107.817V18.3962H117.801Z" fill="#122533"/>
<path d="M122.514 18.3962V30.9557H119.079V18.3962H122.514Z" fill="#122533"/>
<path d="M132.289 28.907H127.909L127.243 30.9557H123.634L128.138 18.3962H132.096L136.581 30.9557H132.956L132.289 28.907ZM131.43 26.2348L130.097 22.1722L128.785 26.2348H131.43Z" fill="#122533"/>
<path d="M148.807 24.0735C148.381 24.6815 147.792 25.1695 147.045 25.5412C146.293 25.913 145.395 26.0989 144.349 26.0989H142.212L141.352 31.0793H138.772L141.038 18.1055H145.736C147.041 18.1055 148.028 18.3998 148.698 18.9885C149.368 19.5771 149.705 20.3594 149.705 21.3393C149.705 21.6258 149.682 21.8853 149.632 22.1216C149.512 22.8148 149.237 23.4654 148.811 24.0735H148.807ZM146.247 23.5351C146.65 23.1866 146.905 22.718 147.014 22.1216C147.037 22.0092 147.049 21.8505 147.049 21.6375C147.049 20.6576 146.452 20.1697 145.256 20.1697H143.246L142.568 24.0541H144.597C145.29 24.0541 145.84 23.8798 146.243 23.5351H146.247Z" fill="#FC8600"/>
<path d="M159.907 19.0078C160.577 19.6081 160.914 20.3943 160.914 21.3586C160.914 21.5949 160.894 21.835 160.859 22.0828C160.712 22.9271 160.337 23.69 159.736 24.3794C159.132 25.0688 158.327 25.549 157.316 25.8201L159.454 31.0793H156.475L154.574 26.0215H153.35L152.471 31.0793H149.892L152.157 18.1055H156.948C158.253 18.1055 159.241 18.4075 159.911 19.0078H159.907ZM158.261 21.6956C158.261 21.2231 158.114 20.859 157.823 20.5996C157.529 20.3401 157.087 20.2084 156.487 20.2084H154.349L153.671 24.0928H155.809C156.491 24.0928 157.037 23.9185 157.444 23.5739C157.85 23.2253 158.11 22.749 158.222 22.1409C158.245 21.9163 158.257 21.7691 158.257 21.6956H158.261Z" fill="#FC8600"/>
<path d="M164.739 30.5138C163.918 30.049 163.279 29.4062 162.83 28.5812C162.381 27.7563 162.152 26.8114 162.152 25.7464C162.152 24.2592 162.478 22.9192 163.132 21.7303C163.783 20.5413 164.685 19.608 165.839 18.9341C166.989 18.2602 168.287 17.9194 169.724 17.9194C170.808 17.9194 171.761 18.1479 172.586 18.6088C173.407 19.0658 174.046 19.7087 174.495 20.5336C174.944 21.3585 175.173 22.2957 175.173 23.3491C175.173 24.8595 174.851 26.2111 174.204 27.4C173.558 28.589 172.655 29.5223 171.497 30.1962C170.339 30.8701 169.034 31.2109 167.586 31.2109C166.513 31.2109 165.564 30.9785 164.743 30.5138H164.739ZM170.37 28.1049C171.071 27.6324 171.614 26.9973 171.997 26.1995C172.38 25.4017 172.574 24.5303 172.574 23.5892C172.574 22.5745 172.295 21.7729 171.734 21.1919C171.172 20.611 170.386 20.3167 169.375 20.3167C168.473 20.3167 167.671 20.5529 166.97 21.0215C166.269 21.494 165.727 22.1253 165.344 22.9192C164.96 23.7131 164.766 24.5806 164.766 25.5217C164.766 26.5364 165.045 27.3419 165.599 27.9306C166.153 28.5193 166.935 28.8136 167.95 28.8136C168.864 28.8136 169.669 28.5774 170.37 28.1088V28.1049Z" fill="#FC8600"/>
<path d="M45.895 36.3889V37.0356H47.1381V37.8722H45.895V38.5848H47.3047V39.4678H44.8145V35.5098H47.3047V36.3928H45.895V36.3889Z" fill="#4F4F4F"/>
<path d="M52.3817 35.5059V39.4639H51.3011V37.2796L50.5653 39.4639H49.6591L48.9194 37.2641V39.4639H47.8389V35.5059H49.1479L50.1238 38.0774L51.0804 35.5059H52.3855H52.3817Z" fill="#4F4F4F"/>
<path d="M55.9143 37.481C55.8059 37.6785 55.6432 37.8334 55.4225 37.9535C55.2017 38.0697 54.9345 38.1316 54.6208 38.1316H54.0864V39.4678H53.0059V35.5098H54.6247C54.9384 35.5098 55.2017 35.5679 55.4225 35.6802C55.6432 35.7925 55.8059 35.9474 55.9182 36.1449C56.0305 36.3424 56.0847 36.5709 56.0847 36.8304C56.0847 37.0705 56.0305 37.2874 55.9221 37.4849L55.9143 37.481ZM54.9732 36.8265C54.9732 36.5399 54.8222 36.3928 54.5163 36.3928H54.0864V37.2525H54.5163C54.8222 37.2525 54.9732 37.1092 54.9732 36.8265Z" fill="#4F4F4F"/>
<path d="M57.3742 39.2431C57.0683 39.0688 56.8282 38.8287 56.6461 38.5189C56.4641 38.2091 56.3789 37.8605 56.3789 37.4732C56.3789 37.0859 56.468 36.7335 56.6461 36.4276C56.8243 36.1178 57.0683 35.8776 57.3742 35.7072C57.6802 35.5368 58.0132 35.4478 58.3811 35.4478C58.7491 35.4478 59.086 35.533 59.3881 35.7072C59.6901 35.8776 59.9303 36.1216 60.1084 36.4276C60.2866 36.7374 60.3718 37.0859 60.3718 37.4732C60.3718 37.8605 60.2827 38.2129 60.1084 38.5189C59.9341 38.8248 59.6901 39.0688 59.3842 39.2431C59.0782 39.4174 58.7452 39.5026 58.3811 39.5026C58.0171 39.5026 57.6802 39.4174 57.3742 39.2431ZM59.0356 38.2052C59.1944 38.0232 59.2758 37.7753 59.2758 37.4694C59.2758 37.1634 59.1944 36.9078 59.0356 36.7258C58.8769 36.5438 58.6561 36.4547 58.3811 36.4547C58.1062 36.4547 57.8816 36.5476 57.7228 36.7258C57.564 36.9078 57.4865 37.1557 57.4865 37.4694C57.4865 37.7831 57.5679 38.027 57.7228 38.2091C57.8816 38.3911 58.0984 38.4802 58.3811 38.4802C58.6639 38.4802 58.8769 38.3872 59.0356 38.2052Z" fill="#4F4F4F"/>
<path d="M66.3438 35.5059L65.3872 39.4639H64.055L63.5205 37.0395L62.9745 39.4639H61.6422L60.6973 35.5059H61.8669L62.32 38.2129L62.9319 35.5059H64.1208L64.7172 38.1897L65.1703 35.5059H66.3399H66.3438Z" fill="#4F4F4F"/>
<path d="M67.8852 36.3889V37.0356H69.1284V37.8722H67.8852V38.5848H69.2949V39.4678H66.8047V35.5098H69.2949V36.3928H67.8852V36.3889Z" fill="#4F4F4F"/>
<path d="M71.8004 39.4639L71.0258 38.0038H70.9096V39.4639H69.8291V35.5059H71.537C71.8507 35.5059 72.1141 35.5601 72.3309 35.6724C72.5478 35.7847 72.7105 35.9357 72.8228 36.1255C72.9351 36.3153 72.9893 36.536 72.9893 36.7723C72.9893 37.0434 72.9157 37.2796 72.7724 37.481C72.6253 37.6862 72.4161 37.8295 72.1334 37.9147L73.0125 39.46H71.8042L71.8004 39.4639ZM70.9096 37.2525H71.4441C71.5912 37.2525 71.7035 37.2176 71.7771 37.1441C71.8507 37.0743 71.8894 36.9698 71.8894 36.8342C71.8894 36.7064 71.8507 36.6057 71.7771 36.5322C71.7035 36.4586 71.5912 36.4237 71.4479 36.4237H70.9135V37.2486L70.9096 37.2525Z" fill="#4F4F4F"/>
<path d="M74.561 35.5059V39.4639H73.4805V35.5059H74.561Z" fill="#4F4F4F"/>
<path d="M78.7863 39.4639H77.7058L76.2651 37.2525V39.4639H75.1846V35.5059H76.2651L77.7058 37.7482V35.5059H78.7863V39.4639Z" fill="#4F4F4F"/>
<path d="M81.8886 36.8071C81.8266 36.7025 81.7414 36.6212 81.633 36.5669C81.5245 36.5127 81.3967 36.4817 81.2496 36.4817C80.9785 36.4817 80.7616 36.5708 80.6067 36.7528C80.4518 36.931 80.3705 37.175 80.3705 37.4771C80.3705 37.8179 80.4557 38.0773 80.6222 38.2555C80.7887 38.4336 81.0327 38.5227 81.3541 38.5227C81.7337 38.5227 82.0048 38.3484 82.1674 37.9999H81.0792V37.2098H83.1008V38.2749C83.0156 38.484 82.8916 38.6815 82.729 38.8635C82.5663 39.0455 82.3572 39.1966 82.1093 39.3166C81.8576 39.4328 81.5749 39.4948 81.2534 39.4948C80.8623 39.4948 80.5176 39.4096 80.2194 39.2392C79.9173 39.0688 79.6888 38.8325 79.5223 38.5266C79.3558 38.2206 79.2783 37.8721 79.2783 37.4809C79.2783 37.0898 79.3597 36.7451 79.5223 36.4391C79.685 36.1332 79.9173 35.897 80.2155 35.7266C80.5137 35.5561 80.8584 35.4709 81.2496 35.4709C81.7376 35.4709 82.1442 35.591 82.4656 35.8311C82.7871 36.0712 82.9846 36.3965 83.062 36.8148H81.8963L81.8886 36.8071Z" fill="#4F4F4F"/>
<path d="M87.6672 37.7753C87.8027 37.9534 87.8686 38.1548 87.8686 38.3833C87.8686 38.7202 87.7563 38.9836 87.5278 39.1734C87.2993 39.3631 86.9778 39.4599 86.5673 39.4599H84.6387V35.502H86.5054C86.9043 35.502 87.2141 35.591 87.4426 35.773C87.6672 35.9512 87.7834 36.2068 87.7834 36.5321C87.7834 36.7645 87.7214 36.9581 87.6052 37.113C87.489 37.2679 87.3264 37.3725 87.1289 37.4306C87.3574 37.4848 87.5394 37.5971 87.6711 37.7753H87.6672ZM85.7192 37.0782H86.2652C86.5363 37.0782 86.6719 36.9659 86.6719 36.7374C86.6719 36.5089 86.5363 36.385 86.2652 36.385H85.7192V37.0821V37.0782ZM86.7571 38.2284C86.7571 38.1083 86.7222 38.0154 86.6486 37.9534C86.5751 37.8915 86.4744 37.8566 86.3427 37.8566H85.7192V38.577H86.3504C86.6215 38.577 86.7571 38.4608 86.7571 38.2284Z" fill="#4F4F4F"/>
<path d="M89.4057 35.5058V37.8024C89.4057 38.0154 89.4561 38.1819 89.5529 38.2981C89.6497 38.4143 89.7969 38.4724 89.9983 38.4724C90.1997 38.4724 90.3468 38.4143 90.4475 38.2942C90.5482 38.1781 90.5986 38.0115 90.5986 37.8024V35.5058H91.6791V37.8024C91.6791 38.1664 91.6055 38.4763 91.4544 38.7319C91.3034 38.9875 91.0982 39.1811 90.8387 39.3089C90.5792 39.4367 90.2887 39.5026 89.975 39.5026C89.6613 39.5026 89.3748 39.4367 89.1269 39.3089C88.879 39.1811 88.6815 38.9875 88.5421 38.7319C88.4027 38.4763 88.3291 38.1664 88.3291 37.7985V35.502H89.4057V35.5058Z" fill="#4F4F4F"/>
<path d="M92.6278 39.1734C92.3373 38.9526 92.1824 38.6389 92.1592 38.2323H93.3133C93.3249 38.3717 93.3636 38.4724 93.4333 38.5343C93.503 38.6002 93.5921 38.6312 93.7044 38.6312C93.8051 38.6312 93.8864 38.6079 93.9484 38.5537C94.0142 38.5034 94.0452 38.4336 94.0452 38.3446C94.0452 38.2284 93.991 38.1393 93.8864 38.0735C93.778 38.0076 93.6076 37.9379 93.3675 37.8605C93.1119 37.7753 92.9066 37.6901 92.7517 37.6126C92.5968 37.5352 92.4574 37.4151 92.3412 37.2602C92.225 37.1053 92.1669 36.9 92.1669 36.6522C92.1669 36.4043 92.2289 36.1797 92.3528 35.9977C92.4767 35.8156 92.651 35.6801 92.8718 35.5833C93.0925 35.4903 93.3443 35.4438 93.6231 35.4438C94.0762 35.4438 94.4364 35.5523 94.7075 35.7653C94.9786 35.9822 95.1219 36.2842 95.1412 36.6715H93.9639C93.9639 36.5515 93.9252 36.4624 93.8555 36.4004C93.7858 36.3385 93.7006 36.3114 93.5921 36.3114C93.5108 36.3114 93.4449 36.3346 93.3946 36.3849C93.3443 36.4353 93.3171 36.5011 93.3171 36.5941C93.3171 36.6677 93.3443 36.7335 93.4023 36.7877C93.4604 36.8419 93.5301 36.8884 93.6153 36.9271C93.7006 36.9659 93.8245 37.0162 93.991 37.0743C94.2389 37.1595 94.4403 37.2447 94.6029 37.3299C94.7617 37.4151 94.9011 37.5313 95.0173 37.6823C95.1335 37.8334 95.1916 38.027 95.1916 38.2594C95.1916 38.4917 95.1335 38.7047 95.0173 38.8945C94.9011 39.0804 94.7346 39.2314 94.5138 39.3399C94.2931 39.4483 94.0375 39.5025 93.7393 39.5025C93.2862 39.5025 92.9144 39.3941 92.6239 39.1734H92.6278Z" fill="#4F4F4F"/>
<path d="M96.7836 35.5059V39.4639H95.7031V35.5059H96.7836Z" fill="#4F4F4F"/>
<path d="M101.005 39.4639H99.9245L98.4838 37.2525V39.4639H97.4033V35.5059H98.4838L99.9245 37.7482V35.5059H101.005V39.4639Z" fill="#4F4F4F"/>
<path d="M102.708 36.3889V37.0356H103.952V37.8722H102.708V38.5848H104.118V39.4678H101.628V35.5098H104.118V36.3928H102.708V36.3889Z" fill="#4F4F4F"/>
<path d="M105.006 39.1734C104.715 38.9526 104.56 38.6389 104.537 38.2323H105.691C105.703 38.3717 105.742 38.4724 105.811 38.5343C105.881 38.6002 105.97 38.6312 106.082 38.6312C106.183 38.6312 106.264 38.6079 106.326 38.5537C106.392 38.5034 106.423 38.4336 106.423 38.3446C106.423 38.2284 106.369 38.1393 106.264 38.0735C106.156 38.0076 105.986 37.9379 105.745 37.8605C105.49 37.7753 105.285 37.6901 105.13 37.6126C104.975 37.5352 104.835 37.4151 104.719 37.2602C104.603 37.1053 104.545 36.9 104.545 36.6522C104.545 36.4043 104.607 36.1797 104.731 35.9977C104.855 35.8156 105.029 35.6801 105.25 35.5833C105.47 35.4903 105.722 35.4438 106.001 35.4438C106.454 35.4438 106.814 35.5523 107.085 35.7653C107.357 35.9822 107.5 36.2842 107.519 36.6715H106.342C106.342 36.5515 106.303 36.4624 106.233 36.4004C106.164 36.3385 106.078 36.3114 105.97 36.3114C105.889 36.3114 105.823 36.3346 105.773 36.3849C105.722 36.4353 105.695 36.5011 105.695 36.5941C105.695 36.6677 105.722 36.7335 105.78 36.7877C105.838 36.8419 105.908 36.8884 105.993 36.9271C106.078 36.9659 106.202 37.0162 106.369 37.0743C106.617 37.1595 106.818 37.2447 106.981 37.3299C107.14 37.4151 107.279 37.5313 107.395 37.6823C107.511 37.8334 107.57 38.027 107.57 38.2594C107.57 38.4917 107.511 38.7047 107.395 38.8945C107.279 39.0804 107.113 39.2314 106.892 39.3399C106.671 39.4483 106.415 39.5025 106.117 39.5025C105.664 39.5025 105.292 39.3941 105.002 39.1734H105.006Z" fill="#4F4F4F"/>
<path d="M108.429 39.1734C108.138 38.9526 107.979 38.6389 107.96 38.2323H109.114C109.126 38.3717 109.164 38.4724 109.234 38.5343C109.304 38.6002 109.393 38.6312 109.505 38.6312C109.606 38.6312 109.687 38.6079 109.749 38.5537C109.811 38.4995 109.846 38.4336 109.846 38.3446C109.846 38.2284 109.792 38.1393 109.687 38.0735C109.579 38.0076 109.408 37.9379 109.168 37.8605C108.913 37.7753 108.707 37.6901 108.552 37.6126C108.398 37.5313 108.262 37.4151 108.146 37.2602C108.03 37.1053 107.972 36.9 107.972 36.6522C107.972 36.4043 108.034 36.1797 108.157 35.9977C108.281 35.8156 108.456 35.6801 108.676 35.5833C108.897 35.4903 109.149 35.4438 109.428 35.4438C109.881 35.4438 110.241 35.5523 110.512 35.7653C110.783 35.9822 110.927 36.2842 110.946 36.6715H109.769C109.769 36.5515 109.73 36.4624 109.66 36.4004C109.59 36.3385 109.505 36.3114 109.397 36.3114C109.315 36.3114 109.25 36.3346 109.199 36.3849C109.149 36.4353 109.122 36.5011 109.122 36.5941C109.122 36.6677 109.149 36.7335 109.207 36.7877C109.265 36.8419 109.335 36.8884 109.42 36.9271C109.505 36.9659 109.629 37.0162 109.796 37.0743C110.044 37.1595 110.245 37.2447 110.408 37.3299C110.566 37.4151 110.706 37.5313 110.822 37.6823C110.938 37.8334 110.996 38.027 110.996 38.2594C110.996 38.4917 110.938 38.7047 110.822 38.8945C110.706 39.0804 110.539 39.2314 110.318 39.3399C110.098 39.4483 109.842 39.5025 109.544 39.5025C109.091 39.5025 108.719 39.3941 108.429 39.1734Z" fill="#4F4F4F"/>
<path d="M112.581 36.3889V37.0356H113.824V37.8722H112.581V38.5848H113.99V39.4678H111.5V35.5098H113.99V36.3928H112.581V36.3889Z" fill="#4F4F4F"/>
<path d="M114.877 39.1734C114.586 38.9526 114.431 38.6389 114.408 38.2323H115.562C115.574 38.3717 115.613 38.4724 115.682 38.5343C115.752 38.6002 115.841 38.6312 115.953 38.6312C116.054 38.6312 116.135 38.6079 116.197 38.5537C116.263 38.5034 116.294 38.4336 116.294 38.3446C116.294 38.2284 116.24 38.1393 116.135 38.0735C116.027 38.0076 115.857 37.9379 115.617 37.8605C115.361 37.7753 115.156 37.6901 115.001 37.6126C114.846 37.5352 114.706 37.4151 114.59 37.2602C114.474 37.1053 114.416 36.9 114.416 36.6522C114.416 36.4043 114.478 36.1797 114.602 35.9977C114.726 35.8156 114.9 35.6801 115.121 35.5833C115.342 35.4903 115.593 35.4438 115.872 35.4438C116.325 35.4438 116.685 35.5523 116.957 35.7653C117.228 35.9822 117.371 36.2842 117.39 36.6715H116.213C116.213 36.5515 116.174 36.4624 116.104 36.4004C116.035 36.3385 115.95 36.3114 115.841 36.3114C115.76 36.3114 115.694 36.3346 115.644 36.3849C115.593 36.4353 115.566 36.5011 115.566 36.5941C115.566 36.6677 115.593 36.7335 115.651 36.7877C115.709 36.8419 115.779 36.8884 115.864 36.9271C115.95 36.9659 116.074 37.0162 116.24 37.0743C116.488 37.1595 116.689 37.2447 116.852 37.3299C117.011 37.4151 117.15 37.5313 117.266 37.6823C117.383 37.8334 117.441 38.027 117.441 38.2594C117.441 38.4917 117.383 38.7047 117.266 38.8945C117.15 39.0804 116.984 39.2314 116.763 39.3399C116.542 39.4483 116.287 39.5025 115.988 39.5025C115.535 39.5025 115.163 39.3941 114.873 39.1734H114.877Z" fill="#4F4F4F"/>
<path d="M124.485 35.5059L123.529 39.4639H122.197L121.662 37.0395L121.116 39.4639H119.784L118.839 35.5059H120.008L120.462 38.2129L121.073 35.5059H122.262L122.859 38.1897L123.312 35.5059H124.482H124.485Z" fill="#4F4F4F"/>
<path d="M126.027 35.5059V39.4639H124.946V35.5059H126.027Z" fill="#4F4F4F"/>
<path d="M129.578 35.5059V36.3811H128.54V39.4639H127.46V36.3811H126.434V35.5059H129.582H129.578Z" fill="#4F4F4F"/>
<path d="M133.467 35.5059V39.4639H132.386V37.876H131.066V39.4639H129.985V35.5059H131.066V36.993H132.386V35.5059H133.467Z" fill="#4F4F4F"/>
<path d="M135.492 39.1734C135.202 38.9526 135.047 38.6389 135.023 38.2323H136.178C136.189 38.3717 136.228 38.4724 136.298 38.5343C136.367 38.6002 136.456 38.6312 136.569 38.6312C136.669 38.6312 136.751 38.6079 136.813 38.5537C136.879 38.5034 136.909 38.4336 136.909 38.3446C136.909 38.2284 136.855 38.1393 136.751 38.0735C136.642 38.0076 136.472 37.9379 136.232 37.8605C135.976 37.7753 135.771 37.6901 135.616 37.6126C135.461 37.5352 135.322 37.4151 135.205 37.2602C135.089 37.1053 135.031 36.9 135.031 36.6522C135.031 36.4043 135.093 36.1797 135.217 35.9977C135.341 35.8156 135.515 35.6801 135.736 35.5833C135.957 35.4903 136.209 35.4438 136.487 35.4438C136.94 35.4438 137.301 35.5523 137.572 35.7653C137.843 35.9822 137.986 36.2842 138.005 36.6715H136.828C136.828 36.5515 136.789 36.4624 136.72 36.4004C136.65 36.3385 136.565 36.3114 136.456 36.3114C136.375 36.3114 136.309 36.3346 136.259 36.3849C136.209 36.4353 136.181 36.5011 136.181 36.5941C136.181 36.6677 136.209 36.7335 136.267 36.7877C136.325 36.8419 136.394 36.8884 136.48 36.9271C136.565 36.9659 136.689 37.0162 136.855 37.0743C137.103 37.1595 137.305 37.2447 137.467 37.3299C137.626 37.4151 137.765 37.5313 137.882 37.6823C137.998 37.8334 138.056 38.027 138.056 38.2594C138.056 38.4917 137.998 38.7047 137.882 38.8945C137.765 39.0804 137.599 39.2314 137.378 39.3399C137.157 39.4483 136.902 39.5025 136.604 39.5025C136.15 39.5025 135.779 39.3941 135.488 39.1734H135.492Z" fill="#4F4F4F"/>
<path d="M141.026 38.8171H139.644L139.435 39.4639H138.296L139.713 35.5059H140.96L142.374 39.4639H141.231L141.022 38.8171H141.026ZM140.755 37.9767L140.337 36.6948L139.922 37.9767H140.755Z" fill="#4F4F4F"/>
<path d="M145.647 37.481C145.538 37.6785 145.376 37.8334 145.155 37.9535C144.934 38.0697 144.667 38.1316 144.353 38.1316H143.819V39.4678H142.738V35.5098H144.357C144.671 35.5098 144.934 35.5679 145.155 35.6802C145.376 35.7925 145.538 35.9474 145.651 36.1449C145.763 36.3424 145.817 36.5709 145.817 36.8304C145.817 37.0705 145.763 37.2874 145.654 37.4849L145.647 37.481ZM144.706 36.8265C144.706 36.5399 144.555 36.3928 144.249 36.3928H143.819V37.2525H144.249C144.555 37.2525 144.706 37.1092 144.706 36.8265Z" fill="#4F4F4F"/>
<path d="M148.38 36.3889V37.0356H149.623V37.8722H148.38V38.5848H149.79V39.4678H147.3V35.5098H149.79V36.3928H148.38V36.3889Z" fill="#4F4F4F"/>
<path d="M152.761 39.4639L152.006 38.3446L151.359 39.4639H150.128L151.394 37.4384L150.085 35.5059H151.359L152.095 36.5941L152.722 35.5059H153.954L152.707 37.5004L154.039 39.4677H152.765L152.761 39.4639Z" fill="#4F4F4F"/>
<path d="M157.32 37.481C157.211 37.6785 157.048 37.8334 156.828 37.9535C156.607 38.0697 156.34 38.1316 156.022 38.1316H155.488V39.4678H154.407V35.5098H156.026C156.34 35.5098 156.607 35.5679 156.824 35.6802C157.041 35.7925 157.207 35.9474 157.32 36.1449C157.432 36.3424 157.486 36.5709 157.486 36.8304C157.486 37.0705 157.432 37.2874 157.323 37.4849L157.32 37.481ZM156.378 36.8265C156.378 36.5399 156.227 36.3928 155.921 36.3928H155.492V37.2525H155.921C156.227 37.2525 156.378 37.1092 156.378 36.8265Z" fill="#4F4F4F"/>
<path d="M159 36.3889V37.0356H160.244V37.8722H159V38.5848H160.41V39.4678H157.92V35.5098H160.41V36.3928H159V36.3889Z" fill="#4F4F4F"/>
<path d="M162.916 39.4639L162.141 38.0038H162.025V39.4639H160.944V35.5059H162.652C162.966 35.5059 163.229 35.5601 163.446 35.6724C163.663 35.7847 163.826 35.9357 163.938 36.1255C164.05 36.3153 164.105 36.536 164.105 36.7723C164.105 37.0434 164.031 37.2796 163.888 37.481C163.74 37.6862 163.531 37.8295 163.249 37.9147L164.128 39.46H162.919L162.916 39.4639ZM162.025 37.2525H162.559C162.706 37.2525 162.819 37.2176 162.892 37.1441C162.966 37.0743 163.005 36.9698 163.005 36.8342C163.005 36.7064 162.966 36.6057 162.892 36.5322C162.819 36.4586 162.706 36.4237 162.563 36.4237H162.029V37.2486L162.025 37.2525Z" fill="#4F4F4F"/>
<path d="M167.528 35.5059V36.3811H166.49V39.4639H165.409V36.3811H164.383V35.5059H167.531H167.528Z" fill="#4F4F4F"/>
<path d="M169.015 35.5059V39.4639H167.935V35.5059H169.015Z" fill="#4F4F4F"/>
<path d="M169.987 39.1734C169.697 38.9526 169.538 38.6389 169.519 38.2323H170.673C170.684 38.3717 170.723 38.4724 170.793 38.5343C170.862 38.6002 170.951 38.6312 171.064 38.6312C171.164 38.6312 171.246 38.6079 171.308 38.5537C171.37 38.4995 171.405 38.4336 171.405 38.3446C171.405 38.2284 171.35 38.1393 171.246 38.0735C171.137 38.0076 170.967 37.9379 170.727 37.8605C170.471 37.7753 170.266 37.6901 170.111 37.6126C169.956 37.5313 169.821 37.4151 169.704 37.2602C169.588 37.1053 169.53 36.9 169.53 36.6522C169.53 36.4043 169.592 36.1797 169.716 35.9977C169.84 35.8156 170.014 35.6801 170.235 35.5833C170.456 35.4903 170.708 35.4438 170.986 35.4438C171.439 35.4438 171.8 35.5523 172.071 35.7653C172.342 35.9822 172.485 36.2842 172.504 36.6715H171.327C171.327 36.5515 171.288 36.4624 171.219 36.4004C171.149 36.3385 171.064 36.3114 170.955 36.3114C170.874 36.3114 170.808 36.3346 170.758 36.3849C170.707 36.4353 170.68 36.5011 170.68 36.5941C170.68 36.6677 170.708 36.7335 170.766 36.7877C170.824 36.8419 170.893 36.8884 170.979 36.9271C171.064 36.9659 171.188 37.0162 171.354 37.0743C171.602 37.1595 171.804 37.2447 171.966 37.3299C172.125 37.4151 172.264 37.5313 172.381 37.6823C172.497 37.8334 172.555 38.027 172.555 38.2594C172.555 38.4917 172.497 38.7047 172.381 38.8945C172.264 39.0804 172.098 39.2314 171.877 39.3399C171.656 39.4483 171.401 39.5025 171.103 39.5025C170.649 39.5025 170.278 39.3941 169.987 39.1734Z" fill="#4F4F4F"/>
<path d="M174.139 36.3889V37.0356H175.382V37.8722H174.139V38.5848H175.549V39.4678H173.059V35.5098H175.549V36.3928H174.139V36.3889Z" fill="#4F4F4F"/>
</svg>
