<svg width="39" height="39" viewBox="0 0 39 39" fill="none" xmlns="http://www.w3.org/2000/svg">
<circle cx="19.6113" cy="19.75" r="18.75" stroke="#C1C1C1" stroke-width="0.5"/>
<path d="M29.5017 25.166L27.0661 22.7291C26.4244 22.0539 25.247 21.7207 24.5659 22.3963L23.0461 23.9161C22.2926 24.4515 21.5308 23.962 20.9162 23.4175L15.7059 18.209C14.9936 17.4963 14.7654 16.5205 15.2072 16.0782L16.727 14.5588C17.4044 13.8773 17.0689 12.7016 16.3943 12.0586L14.2099 9.87372C13.4156 9.07897 12.3169 8.93322 11.7097 9.54143C9.63157 11.35 8.08057 13.4148 8.75891 16.6094C9.24977 18.9778 10.4444 21.1427 12.1863 22.8207L16.5556 27.19C18.8693 29.5037 21.7348 30.7389 24.2299 30.7389C26.6536 30.8796 28.3682 29.2846 29.8363 27.6648C30.5119 26.9842 30.1768 25.8095 29.5017 25.166Z" fill="#008080"/>
<path d="M23.7199 8.75C23.5984 8.75 23.4818 8.79829 23.3958 8.88424C23.3099 8.9702 23.2616 9.08678 23.2616 9.20833C23.2616 9.32989 23.3099 9.44647 23.3958 9.53242C23.4818 9.61838 23.5984 9.66667 23.7199 9.66667C25.3079 9.66849 26.8303 10.3002 27.9531 11.4232C29.0759 12.5461 29.7074 14.0686 29.709 15.6566C29.709 15.7782 29.7572 15.8948 29.8432 15.9807C29.9292 16.0667 30.0457 16.115 30.1673 16.115C30.2888 16.115 30.4054 16.0667 30.4914 15.9807C30.5773 15.8948 30.6256 15.7782 30.6256 15.6566C30.6238 13.8256 29.8957 12.0701 28.601 10.7752C27.3064 9.48041 25.5509 8.75206 23.7199 8.75Z" fill="#323956"/>
<path d="M22.4759 12.2238C23.7153 12.2255 24.9034 12.7186 25.7798 13.5949C26.6561 14.4713 27.1492 15.6594 27.1509 16.8988C27.1509 17.0204 27.1992 17.1369 27.2852 17.2229C27.3711 17.3088 27.4877 17.3571 27.6092 17.3571C27.7308 17.3571 27.8474 17.3088 27.9333 17.2229C28.0193 17.1369 28.0676 17.0204 28.0676 16.8988C28.0656 15.4164 27.4759 13.9953 26.4277 12.947C25.3795 11.8988 23.9583 11.3091 22.4759 11.3071C22.3544 11.3071 22.2378 11.3554 22.1518 11.4414C22.0659 11.5273 22.0176 11.6439 22.0176 11.7655C22.0176 11.887 22.0659 12.0036 22.1518 12.0896C22.2378 12.1755 22.3544 12.2238 22.4759 12.2238Z" fill="#323956"/>
<path d="M21.716 15.2629C22.3514 15.2636 22.9606 15.5163 23.4099 15.9656C23.8592 16.4149 24.1119 17.0241 24.1126 17.6595C24.1126 17.781 24.1609 17.8976 24.2469 17.9836C24.3328 18.0695 24.4494 18.1178 24.571 18.1178C24.6925 18.1178 24.8091 18.0695 24.8951 17.9836C24.981 17.8976 25.0293 17.781 25.0293 17.6595C25.0283 16.781 24.6789 15.9389 24.0578 15.3177C23.4366 14.6966 22.5945 14.3472 21.716 14.3462C21.5945 14.3462 21.4779 14.3945 21.3919 14.4804C21.306 14.5664 21.2577 14.683 21.2577 14.8045C21.2577 14.9261 21.306 15.0427 21.3919 15.1286C21.4779 15.2146 21.5945 15.2629 21.716 15.2629Z" fill="#323956"/>
</svg>
