<svg width="56" height="56" viewBox="0 0 56 56" fill="none" xmlns="http://www.w3.org/2000/svg">
<g clip-path="url(#clip0_915_3381)">
<path d="M28 7C27.5359 7 27.0908 6.81563 26.7626 6.48744C26.4344 6.15925 26.25 5.71413 26.25 5.25V1.75C26.25 1.28587 26.4344 0.840752 26.7626 0.512563C27.0908 0.184374 27.5359 0 28 0C28.4641 0 28.9092 0.184374 29.2374 0.512563C29.5656 0.840752 29.75 1.28587 29.75 1.75V5.25C29.75 5.71413 29.5656 6.15925 29.2374 6.48744C28.9092 6.81563 28.4641 7 28 7Z" fill="#008080"/>
<path d="M17.7291 9.45157C17.4052 9.45188 17.0875 9.36234 16.8115 9.19292C16.5354 9.02349 16.3117 8.78082 16.1653 8.49187L14.5845 5.36882C14.3749 4.95457 14.3384 4.474 14.4831 4.03285C14.6278 3.5917 14.9418 3.2261 15.3561 3.01647C15.7704 2.80685 16.2509 2.77038 16.6921 2.91507C17.1332 3.05977 17.4988 3.37379 17.7085 3.78805L19.2894 6.9111C19.424 7.17787 19.4882 7.47464 19.4757 7.7732C19.4633 8.07175 19.3746 8.36215 19.2182 8.61677C19.0618 8.8714 18.8429 9.08178 18.5823 9.22789C18.3216 9.37401 18.0279 9.45102 17.7291 9.45157Z" fill="#008080"/>
<path d="M38.271 9.45157C37.9721 9.45102 37.6784 9.37401 37.4178 9.22789C37.1571 9.08178 36.9382 8.8714 36.7818 8.61677C36.6254 8.36215 36.5368 8.07175 36.5244 7.7732C36.5119 7.47464 36.576 7.17787 36.7107 6.9111L38.2916 3.78805C38.5012 3.37379 38.8668 3.05977 39.308 2.91507C39.7491 2.77038 40.2297 2.80685 40.644 3.01647C41.0582 3.2261 41.3722 3.5917 41.5169 4.03285C41.6616 4.474 41.6252 4.95457 41.4155 5.36882L39.8348 8.49187C39.6883 8.78082 39.4647 9.02349 39.1886 9.19292C38.9125 9.36234 38.5949 9.45188 38.271 9.45157Z" fill="#008080"/>
<path d="M28 56C27.5359 56 27.0908 55.8156 26.7626 55.4874C26.4344 55.1592 26.25 54.7141 26.25 54.25V50.75C26.25 50.2859 26.4344 49.8408 26.7626 49.5126C27.0908 49.1844 27.5359 49 28 49C28.4641 49 28.9092 49.1844 29.2374 49.5126C29.5656 49.8408 29.75 50.2859 29.75 50.75V54.25C29.75 54.7141 29.5656 55.1592 29.2374 55.4874C28.9092 55.8156 28.4641 56 28 56Z" fill="#008080"/>
<path d="M16.1448 53.1716C15.846 53.1711 15.5523 53.0941 15.2916 52.9479C15.031 52.8018 14.8121 52.5914 14.6557 52.3368C14.4993 52.0822 14.4106 51.7918 14.3982 51.4932C14.3857 51.1947 14.4499 50.8979 14.5845 50.6311L16.1653 47.5081C16.2691 47.303 16.4122 47.1203 16.5866 46.9705C16.761 46.8207 16.9632 46.7067 17.1817 46.6351C17.4001 46.5634 17.6305 46.5355 17.8598 46.5529C18.089 46.5703 18.3126 46.6326 18.5177 46.7364C18.7228 46.8402 18.9055 46.9834 19.0553 47.1578C19.2051 47.3322 19.3191 47.5344 19.3907 47.7528C19.4624 47.9713 19.4903 48.2017 19.4729 48.4309C19.4555 48.6602 19.3932 48.8837 19.2894 49.0889L17.7084 52.2119C17.562 52.5008 17.3384 52.7435 17.0624 52.9129C16.7863 53.0824 16.4687 53.1719 16.1448 53.1716Z" fill="#008080"/>
<path d="M39.8552 53.1716C39.5313 53.1719 39.2137 53.0824 38.9376 52.9129C38.6616 52.7435 38.4379 52.5008 38.2916 52.2119L36.7106 49.0889C36.501 48.6746 36.4645 48.194 36.6092 47.7528C36.754 47.3117 37.068 46.9461 37.4823 46.7364C37.8966 46.5268 38.3771 46.4903 38.8183 46.6351C39.2595 46.7798 39.6251 47.0938 39.8347 47.5081L41.4155 50.6311C41.5501 50.8979 41.6143 51.1947 41.6018 51.4932C41.5893 51.7918 41.5007 52.0822 41.3443 52.3368C41.1879 52.5914 40.969 52.8018 40.7084 52.9479C40.4477 53.0941 40.154 53.1711 39.8552 53.1716Z" fill="#008080"/>
<path d="M28 16.8C25.7848 16.8 23.6194 17.4569 21.7776 18.6875C19.9358 19.9182 18.5002 21.6674 17.6525 23.7139C16.8048 25.7605 16.583 28.0124 17.0152 30.185C17.4474 32.3576 18.5141 34.3532 20.0804 35.9196C21.6467 37.4859 23.6424 38.5526 25.815 38.9848C27.9876 39.4169 30.2395 39.1951 32.286 38.3474C34.3326 37.4997 36.0818 36.0642 37.3125 34.2224C38.5431 32.3805 39.2 30.2151 39.2 28C39.1966 25.0306 38.0155 22.1838 35.9159 20.0841C33.8162 17.9845 30.9694 16.8034 28 16.8ZM28 36.4C25.7722 36.4 23.6356 35.515 22.0603 33.9397C20.485 32.3644 19.6 30.2278 19.6 28C19.6 25.7722 20.485 23.6356 22.0603 22.0603C23.6356 20.485 25.7722 19.6 28 19.6C28.2045 19.5969 28.409 19.6058 28.6125 19.6266C28.8443 19.6528 29.0659 19.7365 29.2571 19.8701C29.4483 20.0037 29.6031 20.183 29.7074 20.3916C29.8117 20.6003 29.8623 20.8317 29.8544 21.0648C29.8466 21.2979 29.7806 21.5254 29.6625 21.7266C29.4853 22.0382 29.3947 22.3915 29.4 22.75C29.3989 23.1876 29.5348 23.6146 29.7888 23.971C30.0428 24.3274 30.4021 24.5953 30.8162 24.737C31.2302 24.8787 31.6783 24.8872 32.0974 24.7612C32.5165 24.6352 32.8856 24.381 33.1529 24.0345C33.2972 23.8459 33.4871 23.6971 33.7047 23.6021C33.9223 23.5071 34.1605 23.469 34.3969 23.4914C34.6334 23.5138 34.8602 23.596 35.0561 23.7302C35.252 23.8645 35.4105 24.0463 35.5168 24.2587C36.1005 25.4192 36.4031 26.7009 36.4 28C36.3976 30.2271 35.5118 32.3622 33.937 33.937C32.3622 35.5118 30.2271 36.3976 28 36.4Z" fill="#323956"/>
<path d="M31.5 27.65C30.2009 27.6485 28.9555 27.1317 28.0369 26.2132C27.1183 25.2946 26.6015 24.0491 26.6 22.75C26.6 22.6919 26.6014 22.6338 26.6026 22.5764C25.5552 22.8463 24.6084 23.4138 23.8765 24.2103C23.1447 25.0068 22.6592 25.9981 22.4786 27.0646C22.2981 28.1311 22.4303 29.227 22.8592 30.22C23.2882 31.2129 23.9955 32.0604 24.8957 32.66C25.796 33.2596 26.8506 33.5857 27.9321 33.5988C29.0137 33.612 30.0759 33.3116 30.9904 32.734C31.905 32.1564 32.6326 31.3263 33.0855 30.3441C33.5384 29.3618 33.6972 28.2694 33.5426 27.1989C32.9023 27.495 32.2055 27.649 31.5 27.65Z" fill="#323956"/>
<path d="M55.6532 26.9533C55.1506 26.2817 43.1996 10.5 28 10.5C12.8004 10.5 0.849469 26.2817 0.346869 26.9533C0.121382 27.2557 -0.000427246 27.6228 -0.000427246 28C-0.000427246 28.3772 0.121382 28.7443 0.346869 29.0467C0.849469 29.7183 12.8004 45.5 28 45.5C43.1996 45.5 55.1506 29.7183 55.6532 29.0467C55.8787 28.7443 56.0005 28.3772 56.0005 28C56.0005 27.6228 55.8787 27.2557 55.6532 26.9533ZM28 42C25.2311 42 22.5243 41.1789 20.222 39.6406C17.9197 38.1022 16.1253 35.9157 15.0657 33.3576C14.0061 30.7994 13.7288 27.9845 14.269 25.2687C14.8092 22.553 16.1426 20.0584 18.1005 18.1005C20.0585 16.1426 22.553 14.8092 25.2688 14.269C27.9845 13.7288 30.7994 14.0061 33.3576 15.0657C35.9158 16.1253 38.1023 17.9197 39.6406 20.222C41.1789 22.5243 42 25.2311 42 28C41.9958 31.7117 40.5194 35.2702 37.8948 37.8948C35.2702 40.5194 31.7117 41.9957 28 42Z" fill="#008080"/>
</g>
<defs>
<clipPath id="clip0_915_3381">
<rect width="56" height="56" fill="white"/>
</clipPath>
</defs>
</svg>
