<svg width="41" height="46" viewBox="0 0 41 46" fill="none" xmlns="http://www.w3.org/2000/svg">
<path d="M20.2186 7.66667V1.27778C20.2186 0.93889 20.3536 0.613882 20.5939 0.374252C20.8342 0.134623 21.1601 0 21.4999 0C21.8398 0 22.1657 0.134623 22.406 0.374252C22.6463 0.613882 22.7813 0.93889 22.7813 1.27778V7.66667C22.7813 8.00555 22.6463 8.33056 22.406 8.57019C22.1657 8.80982 21.8398 8.94444 21.4999 8.94444C21.1601 8.94444 20.8342 8.80982 20.5939 8.57019C20.3536 8.33056 20.2186 8.00555 20.2186 7.66667ZM7.66131 4.6C7.4574 4.32889 7.36985 3.98811 7.41791 3.65263C7.46597 3.31715 7.64571 3.01444 7.91758 2.81111C8.18945 2.60778 8.53118 2.52047 8.8676 2.5684C9.20402 2.61632 9.50757 2.79556 9.71147 3.06667L13.5555 8.17778C13.6565 8.31202 13.73 8.46477 13.7717 8.62732C13.8135 8.78987 13.8227 8.95903 13.7989 9.12515C13.7751 9.29126 13.7188 9.45108 13.633 9.59546C13.5473 9.73985 13.4339 9.86599 13.2993 9.96667C13.1646 10.0673 13.0115 10.1406 12.8485 10.1822C12.6855 10.2239 12.5158 10.2331 12.3492 10.2094C12.1827 10.1856 12.0224 10.1294 11.8776 10.0439C11.7328 9.95845 11.6063 9.84535 11.5054 9.71111L7.66131 4.6ZM29.7006 9.96667C29.5659 9.86608 29.4523 9.73999 29.3665 9.5956C29.2807 9.45122 29.2243 9.29137 29.2005 9.12522C29.1767 8.95906 29.186 8.78985 29.2278 8.62728C29.2697 8.46471 29.3432 8.31196 29.4443 8.17778L33.2884 3.06667C33.3894 2.93243 33.5159 2.81933 33.6607 2.73384C33.8054 2.64834 33.9657 2.59213 34.1323 2.5684C34.2989 2.54467 34.4685 2.55389 34.6315 2.59553C34.7945 2.63718 34.9477 2.71043 35.0823 2.81111C35.2169 2.91179 35.3303 3.03793 35.4161 3.18231C35.5018 3.3267 35.5582 3.48651 35.582 3.65263C35.6058 3.81874 35.5965 3.9879 35.5548 4.15045C35.513 4.313 35.4395 4.46576 35.3386 4.6L31.4945 9.71111C31.3936 9.84546 31.2672 9.95866 31.1224 10.0442C30.9776 10.1298 30.8173 10.1861 30.6507 10.2098C30.4841 10.2335 30.3144 10.2243 30.1514 10.1826C29.9884 10.1408 29.8352 10.0675 29.7006 9.96667Z" fill="#323956"/>
<path d="M19.539 45.5656C19.6589 45.7021 19.8067 45.8115 19.9724 45.8864C20.1382 45.9613 20.318 46.0001 20.5 46.0001C20.682 46.0001 20.8618 45.9613 21.0276 45.8864C21.1933 45.8115 21.3411 45.7021 21.461 45.5656L40.6813 23.8434C40.8727 23.6272 40.9845 23.3526 40.9985 23.0646C41.0125 22.7766 40.9277 22.4925 40.7582 22.2589L34.3514 13.3145C34.2339 13.149 34.0784 13.0139 33.8978 12.9206C33.7173 12.8272 33.5169 12.7783 33.3135 12.7778H7.68645C7.48307 12.7783 7.28274 12.8272 7.10219 12.9206C6.92164 13.0139 6.7661 13.149 6.64855 13.3145L0.241774 22.2589C0.0722579 22.4925 -0.0124849 22.7766 0.00148842 23.0646C0.0154617 23.3526 0.127318 23.6272 0.318655 23.8434L19.539 45.5656ZM33.3135 16.2534L37.2345 21.7223H29.3926L33.3135 16.2534ZM20.5 16.2534L24.4209 21.7223H16.5791L20.5 16.2534ZM25.1898 24.2778L20.5 40.1989L15.8102 24.2778H25.1898ZM7.68645 16.2534L11.6074 21.7223H3.7655L7.68645 16.2534Z" fill="#008080"/>
</svg>
