<svg width="41" height="41" viewBox="0 0 41 41" fill="none" xmlns="http://www.w3.org/2000/svg">
<g clip-path="url(#clip0_915_3376)">
<path d="M26.6679 9.21494V12.8851L19.8037 19.7493C19.3971 20.1422 19.3858 20.79 19.7784 21.1966C20.1713 21.6029 20.8191 21.6142 21.2258 21.2216C21.2342 21.2135 21.2426 21.2051 21.2508 21.1966L28.1153 14.3321H31.7851C32.0566 14.3321 32.3169 14.2245 32.5086 14.0324L38.6493 7.89178C39.0491 7.49201 39.0491 6.84388 38.6493 6.44412C38.4572 6.25237 38.197 6.14476 37.9258 6.14445H34.8556V3.07427C34.8553 2.50903 34.397 2.05109 33.8318 2.05109C33.5606 2.05109 33.3003 2.159 33.1083 2.35075L26.9676 8.49142C26.7758 8.68317 26.6679 8.94374 26.6679 9.21494Z" fill="#323956"/>
<path d="M23.7225 12.9357C19.5581 11.169 14.7503 13.1131 12.9836 17.2774C11.2169 21.4418 13.161 26.2499 17.3253 28.0163C21.4897 29.7831 26.2978 27.8393 28.0642 23.6746C28.9317 21.6304 28.9317 19.3216 28.0642 17.2774L22.6981 22.6436C21.5163 23.8598 19.5725 23.8879 18.3563 22.7065C17.1402 21.5247 17.112 19.5809 18.2935 18.3647C18.3141 18.3435 18.3351 18.3228 18.3563 18.3022L23.7225 12.9357Z" fill="#008080"/>
<path d="M38.5836 10.8523L35.5213 13.9144C39.1598 22.2118 35.3833 31.8878 27.0859 35.5264C18.7887 39.1649 9.11272 35.3881 5.47386 27.091C1.83532 18.7935 5.61212 9.11752 13.9096 5.47898C18.1087 3.6375 22.8868 3.6375 27.0859 5.47898L30.1476 2.41631C20.1604 -2.9117 7.74483 0.865109 2.41682 10.8523C-2.91149 20.8393 0.865311 33.2551 10.8525 38.5834C20.8398 43.9114 33.2553 40.1346 38.5836 30.1474C41.8002 24.1178 41.8002 16.882 38.5836 10.8523Z" fill="#008080"/>
<path d="M24.6209 9.21494C24.6196 8.40603 24.9393 7.62965 25.5102 7.05659C18.0685 4.27263 9.77922 8.04818 6.99494 15.4898C4.21098 22.9314 7.98653 31.2208 15.4282 34.005C22.8698 36.789 31.1591 33.0134 33.9434 25.5718C35.1596 22.3211 35.1596 18.7405 33.9434 15.4898C33.3703 16.0607 32.5939 16.3807 31.785 16.3791H29.8941C32.176 21.5735 29.8153 27.6341 24.6209 29.916C19.4267 32.1983 13.3658 29.8372 11.0839 24.6431C8.8017 19.4487 11.1628 13.3881 16.3569 11.1058C18.9904 9.94909 21.9877 9.94909 24.6209 11.1058V9.21494Z" fill="#008080"/>
</g>
<defs>
<clipPath id="clip0_915_3376">
<rect width="41" height="41" fill="white"/>
</clipPath>
</defs>
</svg>
