<svg width="32" height="33" viewBox="0 0 32 33" fill="none" xmlns="http://www.w3.org/2000/svg">
<path d="M16 0.601318C24.5426 0.601335 31.4678 7.5265 31.4678 16.0691C31.4678 24.6117 24.5426 31.5368 16 31.5369C7.45741 31.5369 0.532244 24.6117 0.532227 16.0691C0.532227 7.52649 7.4574 0.601318 16 0.601318Z" stroke="white"/>
<path fill-rule="evenodd" clip-rule="evenodd" d="M23.9836 24.0529H20.9675V18.7745C20.9675 17.3268 20.3288 16.5196 19.1836 16.5196C17.9372 16.5196 17.1974 17.3641 17.1974 18.7745V24.0529H14.1812V14.2507H17.1974V15.3513C17.5298 14.8383 17.9862 14.4176 18.5244 14.1277C19.0626 13.8377 19.6652 13.6878 20.2765 13.6924C22.4055 13.6924 23.9836 14.9973 23.9836 17.6843V24.0529ZM10.7446 12.6823C10.3772 12.6851 10.0171 12.5786 9.71024 12.3764C9.40334 12.1743 9.16338 11.8856 9.02081 11.547C8.87823 11.2083 8.83947 10.8348 8.90943 10.474C8.97939 10.1133 9.15493 9.78151 9.41377 9.52067C9.67261 9.25983 10.0031 9.08185 10.3633 9.00912C10.7235 8.93639 11.0972 8.97224 11.437 9.11221C11.7767 9.25218 12.0673 9.48995 12.2717 9.79529C12.4762 10.1006 12.5853 10.4596 12.5853 10.8271C12.5864 11.0698 12.5396 11.3102 12.4476 11.5348C12.3557 11.7594 12.2204 11.9638 12.0494 12.136C11.8785 12.3083 11.6752 12.4452 11.4513 12.5389C11.2275 12.6326 10.9873 12.6814 10.7446 12.6823ZM8.903 24.0529H12.6732V14.2507H8.903V24.0529Z" fill="white"/>
</svg>
