<svg width="38" height="39" viewBox="0 0 38 39" fill="none" xmlns="http://www.w3.org/2000/svg">
<circle cx="19" cy="19.75" r="18.75" stroke="#C1C1C1" stroke-width="0.5"/>
<g clip-path="url(#clip0_28_50)">
<g clip-path="url(#clip1_28_50)">
<path d="M29.1965 17.7774V27.4797C29.1965 28.6872 28.2168 29.6625 27.0136 29.6625H11.0035C9.79607 29.6625 8.82068 28.6829 8.82068 27.4797V17.7774L17.466 9.15786C18.3168 8.30708 19.6961 8.30708 20.5469 9.15786L29.1965 17.7774Z" fill="#008080"/>
<path d="M12.7086 10.9541H25.3242C26.5316 10.9541 27.507 11.9295 27.507 13.1369V25.7482C27.507 26.9557 26.5316 27.9311 25.3242 27.9311H12.7086C11.5011 27.9311 10.5258 26.9557 10.5258 25.7482V13.1369C10.5258 11.9295 11.5054 10.9541 12.7086 10.9541Z" fill="white"/>
<path d="M29.1965 17.7773V27.4797C29.1965 28.6871 28.2168 29.6625 27.0136 29.6625H11.0035C9.79607 29.6625 8.82068 28.6828 8.82068 27.4797V17.8031L18.9957 27.9781L29.1965 17.7773Z" fill="#1C9F9F"/>
<path d="M28.564 29.0181C28.2203 29.3661 27.7605 29.5981 27.2449 29.654L10.9254 29.6626C10.3496 29.6411 9.82966 29.4005 9.45154 29.0181L17.4609 21.0087C18.3117 20.1579 19.6953 20.1579 20.5504 21.0087L28.564 29.0181Z" fill="#008080"/>
<path d="M19.0092 11.9043C20.9639 11.9044 22.5482 13.4896 22.5482 15.4443C22.5481 17.399 20.9638 18.9833 19.0092 18.9834C17.0544 18.9834 15.4692 17.399 15.4691 15.4443C15.4691 13.4895 17.0544 11.9043 19.0092 11.9043Z" stroke="#008080" stroke-width="0.2"/>
<path d="M18.8152 17.756L18.4328 16.02L16.6969 15.6376C16.2199 15.5302 16.1812 14.8685 16.641 14.7052L20.4738 13.3603C20.8562 13.2271 21.2258 13.5966 21.0926 13.979L19.7476 17.8118C19.5844 18.2759 18.9183 18.2329 18.8152 17.756Z" fill="#323956"/>
</g>
</g>
<defs>
<clipPath id="clip0_28_50">
<rect width="22" height="22" fill="white" transform="translate(8 7.25)"/>
</clipPath>
<clipPath id="clip1_28_50">
<rect width="22" height="22" fill="white" transform="translate(8.00818 8.09229)"/>
</clipPath>
</defs>
</svg>
