<svg width="124" height="55" viewBox="0 0 124 55" fill="none" xmlns="http://www.w3.org/2000/svg">
<path d="M31.4975 31.6201V20.4811H35.4916L37.7035 30.188H37.99V20.4811H40.0586V31.6201H36.0645L33.8526 21.9133H33.5662V31.6201H31.4975ZM45.8178 31.8429C45.0328 31.8429 44.3379 31.6785 43.7333 31.3496C43.1392 31.0101 42.6724 30.538 42.3329 29.9334C42.0041 29.3181 41.8396 28.5967 41.8396 27.7692V27.5783C41.8396 26.7508 42.0041 26.0347 42.3329 25.43C42.6618 24.8147 43.1233 24.3426 43.7173 24.0138C44.3114 23.6743 45.001 23.5046 45.786 23.5046C46.5604 23.5046 47.2341 23.6796 47.807 24.0297C48.3798 24.3692 48.8254 24.8465 49.1436 25.4618C49.4619 26.0665 49.621 26.772 49.621 27.5783V28.2625H43.8765C43.8977 28.8035 44.0993 29.2438 44.4812 29.5833C44.8631 29.9227 45.3299 30.0925 45.8815 30.0925C46.4438 30.0925 46.8575 29.9705 47.1227 29.7265C47.3879 29.4825 47.5895 29.212 47.7274 28.9149L49.3664 29.7742C49.2179 30.05 49.0004 30.3524 48.714 30.6813C48.4382 30.9995 48.0669 31.2753 47.6001 31.5087C47.1333 31.7315 46.5392 31.8429 45.8178 31.8429ZM43.8924 26.7667H47.5842C47.5417 26.3105 47.3561 25.9445 47.0272 25.6687C46.709 25.3929 46.2899 25.255 45.7701 25.255C45.2291 25.255 44.7994 25.3929 44.4812 25.6687C44.1629 25.9445 43.9666 26.3105 43.8924 26.7667Z" fill="white"/>
<path d="M53.4733 31.6201C52.9535 31.6201 52.5291 31.461 52.2003 31.1427C51.882 30.8139 51.7229 30.3789 51.7229 29.8379V25.3823H49.7497V23.7273H51.7229V21.2768H53.7279V23.7273H55.892V25.3823H53.7279V29.4878C53.7279 29.8061 53.8764 29.9652 54.1734 29.9652H55.7011V31.6201H53.4733ZM57.6433 31.6201V20.4811H62.2262C62.9264 20.4811 63.5417 20.6243 64.0721 20.9108C64.6132 21.1866 65.0322 21.5791 65.3292 22.0883C65.6369 22.5975 65.7907 23.2022 65.7907 23.9024V24.1252C65.7907 24.8147 65.6316 25.4194 65.3133 25.9392C65.0057 26.4484 64.5813 26.8463 64.0403 27.1327C63.5099 27.4085 62.9052 27.5464 62.2262 27.5464H59.7438V31.6201H57.6433ZM59.7438 25.6369H62.0194C62.518 25.6369 62.9211 25.499 63.2287 25.2231C63.5364 24.9473 63.6902 24.5707 63.6902 24.0933V23.9342C63.6902 23.4568 63.5364 23.0802 63.2287 22.8044C62.9211 22.5286 62.518 22.3907 62.0194 22.3907H59.7438V25.6369ZM67.3106 31.6201V23.7273H69.2838V24.6185H69.5703C69.687 24.3002 69.8779 24.0668 70.1431 23.9183C70.4189 23.7698 70.7372 23.6955 71.0979 23.6955H72.0527V25.4778H71.0661C70.5569 25.4778 70.1378 25.6157 69.8089 25.8915C69.4801 26.1567 69.3157 26.5704 69.3157 27.1327V31.6201H67.3106Z" fill="white"/>
<path d="M75.8614 31.8429C75.0764 31.8429 74.3709 31.6838 73.745 31.3655C73.1191 31.0473 72.6258 30.5858 72.2651 29.9811C71.9044 29.3764 71.7241 28.6497 71.7241 27.801V27.5464C71.7241 26.6977 71.9044 25.9711 72.2651 25.3664C72.6258 24.7617 73.1191 24.3002 73.745 23.9819C74.3709 23.6637 75.0764 23.5046 75.8614 23.5046C76.6464 23.5046 77.3519 23.6637 77.9778 23.9819C78.6037 24.3002 79.097 24.7617 79.4577 25.3664C79.8184 25.9711 79.9987 26.6977 79.9987 27.5464V27.801C79.9987 28.6497 79.8184 29.3764 79.4577 29.9811C79.097 30.5858 78.6037 31.0473 77.9778 31.3655C77.3519 31.6838 76.6464 31.8429 75.8614 31.8429ZM75.8614 30.0607C76.4767 30.0607 76.9859 29.8644 77.389 29.4719C77.7922 29.0688 77.9937 28.4959 77.9937 27.7533V27.5942C77.9937 26.8516 77.7922 26.284 77.389 25.8915C76.9965 25.4884 76.4873 25.2868 75.8614 25.2868C75.2461 25.2868 74.7369 25.4884 74.3338 25.8915C73.9306 26.284 73.7291 26.8516 73.7291 27.5942V27.7533C73.7291 28.4959 73.9306 29.0688 74.3338 29.4719C74.7369 29.8644 75.2461 30.0607 75.8614 30.0607ZM81.8495 34.8027V23.7273H83.8227V24.6821H84.1091C84.2895 24.3745 84.5706 24.1039 84.9525 23.8706C85.3344 23.6266 85.8807 23.5046 86.5915 23.5046C87.228 23.5046 87.8168 23.6637 88.3578 23.9819C88.8989 24.2896 89.3338 24.7458 89.6627 25.3505C89.9916 25.9551 90.156 26.6871 90.156 27.5464V27.801C90.156 28.6603 89.9916 29.3923 89.6627 29.997C89.3338 30.6017 88.8989 31.0632 88.3578 31.3814C87.8168 31.6891 87.228 31.8429 86.5915 31.8429C86.1141 31.8429 85.711 31.7846 85.3821 31.6679C85.0639 31.5618 84.804 31.4239 84.6024 31.2541C84.4115 31.0738 84.2576 30.8934 84.1409 30.7131H83.8545V34.8027H81.8495ZM85.9868 30.0925C86.6127 30.0925 87.1272 29.8962 87.5304 29.5037C87.9441 29.1006 88.151 28.5171 88.151 27.7533V27.5942C88.151 26.8303 87.9441 26.2522 87.5304 25.8597C87.1166 25.4565 86.6021 25.255 85.9868 25.255C85.3715 25.255 84.857 25.4565 84.4433 25.8597C84.0295 26.2522 83.8227 26.8303 83.8227 27.5942V27.7533C83.8227 28.5171 84.0295 29.1006 84.4433 29.5037C84.857 29.8962 85.3715 30.0925 85.9868 30.0925ZM91.997 31.6201V20.4811H94.0021V24.698H94.2885C94.3734 24.5283 94.506 24.3585 94.6863 24.1888C94.8667 24.0191 95.1054 23.8812 95.4024 23.7751C95.71 23.6584 96.0973 23.6 96.564 23.6C97.1793 23.6 97.7151 23.7433 98.1712 24.0297C98.638 24.3055 98.9987 24.6927 99.2533 25.1913C99.5079 25.6793 99.6352 26.2522 99.6352 26.9099V31.6201H97.6302V27.069C97.6302 26.475 97.4817 26.0294 97.1846 25.7324C96.8982 25.4353 96.4845 25.2868 95.9434 25.2868C95.3281 25.2868 94.8507 25.4937 94.5113 25.9074C94.1718 26.3105 94.0021 26.8781 94.0021 27.6101V31.6201H91.997ZM105.399 31.8429C104.614 31.8429 103.919 31.6785 103.314 31.3496C102.72 31.0101 102.254 30.538 101.914 29.9334C101.585 29.3181 101.421 28.5967 101.421 27.7692V27.5783C101.421 26.7508 101.585 26.0347 101.914 25.43C102.243 24.8147 102.704 24.3426 103.299 24.0138C103.893 23.6743 104.582 23.5046 105.367 23.5046C106.142 23.5046 106.815 23.6796 107.388 24.0297C107.961 24.3692 108.407 24.8465 108.725 25.4618C109.043 26.0665 109.202 26.772 109.202 27.5783V28.2625H103.458C103.479 28.8035 103.68 29.2438 104.062 29.5833C104.444 29.9227 104.911 30.0925 105.463 30.0925C106.025 30.0925 106.439 29.9705 106.704 29.7265C106.969 29.4825 107.171 29.212 107.309 28.9149L108.948 29.7742C108.799 30.05 108.582 30.3524 108.295 30.6813C108.019 30.9995 107.648 31.2753 107.181 31.5087C106.714 31.7315 106.12 31.8429 105.399 31.8429ZM103.474 26.7667H107.165C107.123 26.3105 106.937 25.9445 106.608 25.6687C106.29 25.3929 105.871 25.255 105.351 25.255C104.81 25.255 104.381 25.3929 104.062 25.6687C103.744 25.9445 103.548 26.3105 103.474 26.7667Z" fill="white"/>
<path d="M111.811 31.6201C111.291 31.6201 110.867 31.461 110.538 31.1427C110.22 30.8139 110.061 30.3789 110.061 29.8379V25.3823H108.088V23.7273H110.061V21.2768H112.066V23.7273H114.23V25.3823H112.066V29.4878C112.066 29.8061 112.214 29.9652 112.511 29.9652H114.039V31.6201H111.811ZM119.323 31.8429C118.294 31.8429 117.45 31.6201 116.793 31.1746C116.135 30.729 115.737 30.0925 115.599 29.265L117.445 28.7876C117.519 29.1589 117.641 29.4507 117.811 29.6628C117.992 29.875 118.209 30.0288 118.464 30.1243C118.729 30.2092 119.015 30.2516 119.323 30.2516C119.79 30.2516 120.134 30.172 120.357 30.0129C120.58 29.8432 120.691 29.6363 120.691 29.3923C120.691 29.1483 120.585 28.9627 120.373 28.8354C120.161 28.6975 119.822 28.5861 119.355 28.5012L118.909 28.4216C118.358 28.3155 117.854 28.1723 117.397 27.992C116.941 27.801 116.575 27.5411 116.299 27.2123C116.024 26.8834 115.886 26.459 115.886 25.9392C115.886 25.1542 116.172 24.5548 116.745 24.1411C117.318 23.7167 118.071 23.5046 119.005 23.5046C119.885 23.5046 120.617 23.7008 121.201 24.0933C121.784 24.4859 122.166 25.0004 122.346 25.6369L120.485 26.2097C120.4 25.8066 120.225 25.5202 119.959 25.3505C119.705 25.1807 119.387 25.0958 119.005 25.0958C118.623 25.0958 118.331 25.1648 118.129 25.3027C117.928 25.43 117.827 25.6104 117.827 25.8437C117.827 26.0984 117.933 26.2893 118.145 26.4166C118.358 26.5333 118.644 26.6235 119.005 26.6871L119.45 26.7667C120.044 26.8728 120.58 27.016 121.057 27.1963C121.545 27.3661 121.927 27.6154 122.203 27.9442C122.49 28.2625 122.633 28.6975 122.633 29.2491C122.633 30.0766 122.33 30.7184 121.726 31.1746C121.132 31.6201 120.331 31.8429 119.323 31.8429Z" fill="white"/>
<path fill-rule="evenodd" clip-rule="evenodd" d="M36.805 39.5478C36.1568 39.5775 35.5128 39.6035 34.8699 39.6374C34.131 39.6767 33.3931 39.7318 32.6542 39.7605C32.5502 39.76 32.4477 39.7847 32.3553 39.8325C32.263 39.8802 32.1835 39.9496 32.1238 40.0347C31.7975 40.4648 31.438 40.8687 31.0486 41.2425C30.7828 41.4514 30.4799 41.6082 30.1558 41.7046C30.0436 41.727 29.9429 41.7881 29.871 41.8771C29.7992 41.9662 29.7609 42.0776 29.7628 42.192C29.6492 43.6078 29.5044 45.0209 29.3723 46.4356C29.3623 46.5417 29.3623 46.6478 29.3617 46.7539C29.358 47.435 29.367 47.4143 29.9871 47.6785C30.4332 47.8689 30.9998 48.3813 30.9918 48.8932C30.9771 49.0918 30.9178 49.2845 30.8182 49.457C30.7187 49.6295 30.5814 49.7773 30.4168 49.8894C30.0407 50.2186 29.5683 50.4175 29.07 50.4564C28.4867 50.4925 27.9012 50.4653 27.3238 50.3752C27.0913 50.33 26.8717 50.2337 26.681 50.0934C26.4902 49.953 26.3329 49.7721 26.2204 49.5637C26.1126 49.3274 26.0829 49.0629 26.1358 48.8087C26.1887 48.5545 26.3213 48.3237 26.5143 48.15C26.8499 47.8336 27.2664 47.616 27.7179 47.5214C27.8221 47.5122 27.9187 47.4628 27.987 47.3835C28.0553 47.3043 28.0901 47.2015 28.0839 47.0971C28.2179 45.377 28.3663 43.658 28.5289 41.9401C28.5518 41.6982 28.4377 41.6351 28.26 41.5688C27.7189 41.3601 27.2629 40.9766 26.9647 40.4792C26.7375 40.093 26.6293 39.6483 26.6537 39.2008C26.6782 38.7534 26.8341 38.3231 27.102 37.9639C27.4789 37.4626 28.0025 37.0912 28.6002 36.9011C29.1978 36.711 29.8397 36.7116 30.437 36.903C31.0599 37.105 31.5931 37.5176 31.945 38.07C32.0262 38.2157 32.1524 38.3313 32.3047 38.3994C32.457 38.4676 32.6272 38.4847 32.79 38.4482C33.4525 38.3696 34.1257 38.3792 34.7946 38.35C35.4046 38.3235 36.0146 38.2906 36.6241 38.271C36.7 38.2753 36.7752 38.2545 36.8383 38.212C36.9013 38.1695 36.9487 38.1075 36.9731 38.0355C37.1645 37.5723 37.4561 37.1573 37.8268 36.8201C38.1976 36.483 38.6385 36.2321 39.1177 36.0855C39.3636 36.0177 39.6238 36.0231 39.8667 36.1009C40.3133 36.2479 40.751 36.4207 41.1774 36.6186C41.3988 36.7199 41.5918 36.8742 41.7393 37.0678C41.8868 37.2615 41.9842 37.4886 42.023 37.7289C42.1739 38.2691 42.1055 38.8471 41.8325 39.3372C41.6014 39.7676 41.2763 40.1404 40.8815 40.4281C40.4866 40.7158 40.0321 40.9109 39.5516 40.9991C39.0361 41.0909 38.5047 41.0184 38.0326 40.7919C37.5605 40.5654 37.1715 40.1962 36.9206 39.7366C36.8872 39.6756 36.8474 39.6183 36.805 39.5515M35.3197 13.9309C35.3121 13.6558 35.3782 13.3837 35.5111 13.1427C35.644 12.9017 35.8389 12.7006 36.0756 12.5603C36.3619 12.377 36.6721 12.2342 36.9975 12.1359C37.0515 12.1244 37.1026 12.1022 37.1479 12.0707C37.1932 12.0392 37.2318 11.999 37.2614 11.9525C37.2911 11.9059 37.3111 11.8539 37.3204 11.7995C37.3298 11.7451 37.3282 11.6894 37.3158 11.6357C37.2624 10.8397 37.2191 10.0429 37.1858 9.24549C37.1845 9.15327 37.1616 9.06264 37.1188 8.98092C37.0761 8.89919 37.0147 8.82865 36.9397 8.77499C36.4637 8.3972 36.0111 7.99084 35.5844 7.55814C35.4714 7.43583 35.3964 7.28328 35.3686 7.11909C35.3408 6.95491 35.3613 6.78617 35.4277 6.63346C35.4941 6.48074 35.6035 6.35065 35.7426 6.25902C35.8816 6.1674 36.0443 6.11821 36.2109 6.11745C36.8684 6.03905 37.5349 6.14232 38.1379 6.41604C38.7409 6.68976 39.2573 7.12347 39.6312 7.67007C39.7306 7.8012 39.7929 7.95666 39.8115 8.12015C39.8302 8.28364 39.8045 8.44913 39.7372 8.59928C39.6698 8.74943 39.5634 8.87871 39.4289 8.97355C39.2944 9.06839 39.1369 9.12531 38.9729 9.13834C38.8021 9.16752 38.6324 9.20465 38.4393 9.24443C38.479 9.97167 38.5162 10.6729 38.556 11.3742C38.5714 11.4428 38.5803 11.5128 38.5825 11.5832C38.4764 12.295 38.9061 12.7178 39.3882 13.1215C39.7479 13.4019 40.0202 13.7792 40.173 14.2089C40.3259 14.6387 40.353 15.1031 40.2513 15.5477C40.1517 15.9085 39.9397 16.2281 39.646 16.4601C39.2862 16.7608 38.8414 16.9415 38.3738 16.9768C37.9063 17.0122 37.4393 16.9005 37.0384 16.6574C36.5285 16.4091 36.0945 16.0289 35.7812 15.5562C35.705 15.4247 35.5938 15.3169 35.4599 15.2448C35.3261 15.1727 35.1749 15.1391 35.0232 15.1478C34.0153 15.1605 33.0027 15.1817 31.9928 15.1976C31.5817 15.204 31.169 15.2226 30.7589 15.2056C30.6254 15.1971 30.4919 15.2229 30.3711 15.2807C30.2504 15.3384 30.1465 15.4262 30.0694 15.5355C29.8026 15.8618 29.5099 16.166 29.1941 16.4452C28.8953 16.7174 28.5339 16.9114 28.1419 17.0101C27.75 17.1087 27.3397 17.1089 26.9477 17.0107C26.4787 16.9338 26.0395 16.7308 25.6772 16.4232C25.3149 16.1157 25.0431 15.7153 24.8911 15.265C24.7571 14.8402 24.7491 14.3856 24.8681 13.9563C24.9871 13.527 25.228 13.1414 25.5616 12.8462C25.9327 12.4799 26.3943 12.2187 26.8993 12.0893C27.4043 11.9598 27.9346 11.9668 28.4361 12.1094C29.211 12.3456 29.8633 12.8746 30.2545 13.584C30.2998 13.6759 30.3719 13.7519 30.4613 13.802C30.5507 13.8521 30.6532 13.8739 30.7552 13.8646C31.2374 13.8545 31.7196 13.8588 32.2012 13.8678C33.0823 13.8837 33.9628 13.9086 34.8434 13.9288C34.9823 13.932 35.1219 13.9293 35.3176 13.9293L35.3197 13.9309ZM13.0341 19.2906C12.571 19.2195 12.1541 19.1845 11.7509 19.0869C11.5202 19.0285 11.3114 18.9042 11.15 18.7292C10.9887 18.5542 10.8817 18.336 10.8423 18.1013C10.7536 17.7405 10.7437 17.3649 10.8131 17C10.8826 16.635 11.0299 16.2893 11.2449 15.9864C11.6551 15.3495 12.2738 14.8749 12.9953 14.6438C13.2212 14.5551 13.4625 14.512 13.7051 14.5171C13.9478 14.5221 14.187 14.5753 14.409 14.6734C14.631 14.7715 14.8313 14.9126 14.9984 15.0887C15.1654 15.2647 15.296 15.4721 15.3824 15.6989C15.4821 15.9527 15.5213 16.2262 15.497 16.4978C15.4727 16.7694 15.3855 17.0316 15.2423 17.2637C14.9909 17.6828 14.6535 18.0504 14.3724 18.4535C14.2843 18.568 14.2417 18.7111 14.253 18.8551C14.4058 19.5176 14.5904 20.1732 14.7623 20.831C14.8572 21.1949 14.9607 21.5571 15.0365 21.9247C15.0858 22.1629 15.1956 22.268 15.4439 22.2504C15.8214 22.2139 16.2017 22.2813 16.5435 22.4455C16.8854 22.6097 17.1758 22.8644 17.3832 23.1819C17.5606 23.4385 17.6716 23.735 17.7062 24.0449C17.7932 24.5342 17.7254 25.0384 17.5121 25.4872C17.1948 26.1245 16.6532 26.6219 15.9913 26.8839C15.1018 27.2186 14.1995 27.3443 13.3704 26.7248C13.1173 26.5523 12.9095 26.3215 12.7643 26.0518C12.6192 25.7821 12.5411 25.4815 12.5365 25.1753C12.5032 24.7279 12.5869 24.2795 12.7793 23.8742C12.9718 23.469 13.2663 23.1207 13.634 22.8636C13.6961 22.8167 13.7466 22.7562 13.7819 22.6868C13.8172 22.6175 13.8363 22.541 13.8377 22.4632C13.582 21.3784 13.2951 20.3026 13.0341 19.2906ZM10.8386 34.6698C10.3612 35.2257 9.90921 35.7519 9.4525 36.2712C9.03345 36.7486 8.62182 37.2308 8.17943 37.6827C8.07181 37.8052 8.00026 37.9551 7.97273 38.1158C7.94519 38.2765 7.96276 38.4417 8.02348 38.593C8.11264 38.9678 8.16856 39.3498 8.19057 39.7345C8.20542 40.5424 7.63625 40.8861 6.9175 40.536C6.27302 40.164 5.75408 39.6083 5.42694 38.9399C5.12496 38.4044 4.99879 37.7877 5.06624 37.1767C5.0595 37.074 5.07584 36.9711 5.11405 36.8755C5.15227 36.7799 5.21139 36.6941 5.28708 36.6244C5.36277 36.5547 5.45311 36.5028 5.55147 36.4725C5.64984 36.4422 5.75373 36.4343 5.85554 36.4494C6.12768 36.504 6.39231 36.5909 6.64378 36.7083C6.83421 36.7831 7.0151 36.8871 7.17423 36.9661C7.95186 36.0739 8.68017 35.2156 9.43659 34.3823C9.56725 34.2467 9.65686 34.0769 9.69507 33.8926C9.73327 33.7082 9.71851 33.5168 9.65248 33.3405C9.51397 32.8944 9.50526 32.4181 9.62736 31.9672C9.74947 31.5164 9.99736 31.1096 10.3421 30.7943C10.6731 30.4598 11.0752 30.2041 11.5185 30.0463C11.9619 29.8884 12.4351 29.8324 12.9031 29.8825C13.4311 29.9376 13.9184 30.1918 14.2658 30.5933C14.478 30.7975 14.6388 31.0491 14.7352 31.3275C14.8315 31.6058 14.8606 31.903 14.8201 32.1947C14.7635 32.7247 14.5385 33.2225 14.1782 33.6153C13.7138 34.1516 13.1069 34.5452 12.4278 34.7504C11.9856 34.8841 11.5125 34.8745 11.0762 34.7228C10.9982 34.6999 10.9188 34.6822 10.8386 34.6698ZM12.2135 12.818C12.0374 12.8304 11.8612 12.797 11.7018 12.7211C11.5425 12.6453 11.4054 12.5295 11.304 12.3851C11.2026 12.2407 11.1403 12.0724 11.123 11.8968C11.1058 11.7212 11.1342 11.5441 11.2056 11.3827C11.4391 10.7832 11.8084 10.2461 12.2846 9.81355C12.7607 9.38097 13.3306 9.06468 13.9496 8.88956C14.0855 8.85259 14.2303 8.86674 14.3565 8.92935C14.4779 8.98999 14.6144 9.01381 14.7491 8.99788C14.8839 8.98196 15.0111 8.92697 15.115 8.8397C16.0465 8.22544 16.9778 7.6103 17.9089 6.99428C17.9633 6.94978 18.0208 6.90902 18.0807 6.87227C18.2302 6.80441 18.3574 6.69551 18.4475 6.55823C18.5375 6.42095 18.5867 6.26092 18.5894 6.09676C18.6942 5.73963 18.9219 5.43108 19.2323 5.22577C19.9514 4.63868 20.8673 4.34804 21.7933 4.41313C22.1944 4.41973 22.5793 4.57273 22.8754 4.84332C22.9732 4.95297 23.0473 5.08167 23.0929 5.22133C23.1385 5.361 23.1548 5.50859 23.1406 5.65483C23.1264 5.80107 23.082 5.94278 23.0104 6.07106C22.9388 6.19933 22.8413 6.31139 22.7243 6.40018C21.9652 7.13832 20.944 7.54473 19.8853 7.53003C19.6299 7.53505 19.3804 7.60831 19.1628 7.74221C17.9301 8.53788 16.7088 9.35123 15.4991 10.1823C15.2817 10.3573 15.1023 10.5748 14.9718 10.8214C14.6354 11.4574 14.1425 11.997 13.5396 12.3894C13.1503 12.6616 12.6884 12.8109 12.2135 12.818ZM19.3087 10.9742C19.5984 10.943 19.8915 10.9717 20.1697 11.0584C20.4479 11.145 20.7053 11.2879 20.9261 11.4781C21.2259 11.7012 21.4531 12.008 21.5789 12.3599C21.7048 12.7118 21.7236 13.093 21.6331 13.4556C21.4529 14.1802 21.0208 14.8171 20.4141 15.2523C19.8074 15.6876 19.0657 15.8929 18.3216 15.8315C17.9056 15.7975 17.5095 15.639 17.185 15.3765C16.8606 15.114 16.6228 14.7598 16.5027 14.3601C16.3712 13.9854 16.345 13.5819 16.4269 13.1933C16.5088 12.8048 16.6957 12.4462 16.9673 12.1566C17.2838 11.7945 17.6567 11.486 18.0717 11.2432C18.4433 11.0216 18.877 10.9272 19.3071 10.9742H19.3087ZM22.2866 39.0232C22.7476 39.0002 23.208 39.0765 23.6369 39.2468C24.0659 39.4171 24.4532 39.6775 24.7729 40.0103C24.9562 40.1857 25.097 40.4007 25.1844 40.639C25.2717 40.8772 25.3033 41.1323 25.2767 41.3847C25.2501 41.637 25.1661 41.8799 25.031 42.0947C24.8959 42.3095 24.7135 42.4905 24.4975 42.6238C24.0034 42.9822 23.4138 43.1854 22.8038 43.2077C22.1938 43.23 21.5909 43.0703 21.0719 42.749C20.7444 42.5628 20.465 42.3025 20.2561 41.9889C20.1219 41.7645 20.0365 41.5143 20.0054 41.2547C19.9744 40.995 19.9985 40.7317 20.0761 40.482C20.1537 40.2323 20.283 40.0018 20.4557 39.8054C20.6284 39.6091 20.8405 39.4513 21.0783 39.3425C21.4499 39.1428 21.8633 39.0334 22.2851 39.0232H22.2866ZM22.4988 9.34999C22.4758 9.01976 22.5371 8.68909 22.677 8.38908C22.8169 8.08908 23.0309 7.8296 23.2987 7.63506C23.6485 7.32606 24.0658 7.10316 24.5171 6.98416C24.9684 6.86516 25.4412 6.85337 25.8979 6.94972C26.206 7.00162 26.5006 7.11426 26.7647 7.28109C27.0288 7.44793 27.257 7.66562 27.4362 7.9215C27.6007 8.16868 27.6876 8.45943 27.6855 8.75635C27.6834 9.05327 27.5925 9.34278 27.4246 9.58763C27.0581 10.1601 26.5159 10.5982 25.8793 10.8364C25.2427 11.0745 24.5461 11.0998 23.8939 10.9084C23.4952 10.741 23.1295 10.5039 22.8139 10.2083C22.6885 10.1071 22.5927 9.97399 22.5368 9.8229C22.4808 9.67181 22.4668 9.5084 22.4962 9.34999H22.4988ZM31.6029 7.94749C31.9889 7.90454 32.3797 7.94255 32.7502 8.05909C33.1208 8.17563 33.4629 8.36814 33.7549 8.62434C34.1814 8.96118 34.508 9.40792 34.6996 9.91651C34.7787 10.1647 34.7816 10.4308 34.7081 10.6807C34.6345 10.9306 34.4878 11.1527 34.2869 11.3185C33.9899 11.6426 33.5997 11.8667 33.1701 11.9601C32.7405 12.0534 32.2925 12.0115 31.8877 11.8399C31.4436 11.7181 31.0302 11.504 30.6746 11.2115C30.3189 10.919 30.029 10.5547 29.8238 10.1425C29.6752 9.84503 29.6319 9.50596 29.7011 9.18074C29.7703 8.85552 29.9478 8.56341 30.2046 8.35222C30.386 8.17428 30.6087 8.04416 30.8527 7.97351C31.0968 7.90287 31.3545 7.89393 31.6029 7.94749ZM34.4392 46.3094C34.1508 46.2827 33.8662 46.2245 33.5905 46.1359C33.4061 46.0704 33.2384 45.9652 33.0991 45.8278C32.9598 45.6903 32.8524 45.524 32.7844 45.3406C32.7163 45.1571 32.6894 44.961 32.7054 44.766C32.7214 44.571 32.78 44.3819 32.877 44.212C33.1082 43.6229 33.5172 43.1203 34.047 42.7742C34.5769 42.4281 35.2013 42.2556 35.8337 42.2806C36.0954 42.2508 36.3603 42.2867 36.6046 42.3852C36.8489 42.4837 37.0647 42.6415 37.2325 42.8445C37.3952 43.0464 37.498 43.2899 37.529 43.5474C37.5601 43.8048 37.5182 44.0658 37.4081 44.3006C37.1097 45.0115 36.5547 45.5842 35.8533 45.9046C35.4324 46.1764 34.9402 46.3173 34.4392 46.3094ZM13.6186 41.8849C14.2689 41.9192 14.8952 42.1421 15.4209 42.5264C15.9466 42.9108 16.3491 43.4399 16.579 44.0491C16.6687 44.3636 16.6783 44.6954 16.6072 45.0145C16.549 45.2715 16.3973 45.4977 16.1816 45.649C15.9659 45.8003 15.7016 45.8659 15.4402 45.833C14.8248 45.8509 14.2203 45.6682 13.7178 45.3127C13.1131 44.9637 12.6375 44.4286 12.362 43.7871C12.118 43.0874 12.1986 42.4053 12.8479 42.0642C13.0956 41.9713 13.3543 41.9107 13.6176 41.8839L13.6186 41.8849ZM10.2418 14.6465C10.2148 15.3203 9.98644 15.9705 9.58618 16.5131C9.18592 17.0558 8.63217 17.466 7.99642 17.6907C7.8253 17.7407 7.64512 17.7515 7.46926 17.7222C7.29341 17.693 7.1264 17.6245 6.98064 17.5219C6.83488 17.4192 6.71413 17.2851 6.62734 17.1293C6.54056 16.9736 6.48997 16.8004 6.47935 16.6224C6.45774 16.1748 6.55201 15.7292 6.75306 15.3286C7.05375 14.596 7.58527 13.9814 8.26695 13.5782C8.46368 13.4475 8.69026 13.3686 8.92564 13.3489C9.16101 13.3293 9.39754 13.3695 9.61322 13.4657C9.82877 13.5712 10.0055 13.742 10.1182 13.9539C10.2309 14.1657 10.2738 14.4078 10.2407 14.6454L10.2418 14.6465ZM6.78011 25.0915C6.0046 25.2061 5.68208 24.6672 5.65291 23.9192C5.6677 23.0854 6.00721 22.2903 6.59923 21.703C6.8428 21.3853 7.15722 21.1288 7.51743 20.954C7.73194 20.8196 7.98093 20.7505 8.23403 20.7553C8.48713 20.76 8.73338 20.8382 8.94274 20.9806C9.15406 21.1545 9.30772 21.3885 9.38348 21.6515C9.45923 21.9146 9.45352 22.1944 9.3671 22.4541C9.22703 23.2368 8.83201 23.9511 8.24361 24.4857C8.05944 24.6884 7.83272 24.8478 7.5797 24.9525C7.32668 25.0573 7.05363 25.1047 6.78011 25.0915ZM23.0346 49.2268C22.2629 49.2599 21.5057 49.0096 20.9059 48.5229C20.6832 48.3993 20.5059 48.2076 20.4001 47.976C20.2942 47.7443 20.2653 47.4848 20.3176 47.2355C20.3752 46.9996 20.5003 46.7855 20.6776 46.6195C20.8549 46.4536 21.0767 46.3428 21.3159 46.3009C21.8621 46.1293 22.4429 46.0991 23.0039 46.2132C23.5649 46.3273 24.0878 46.582 24.5235 46.9533C24.7822 47.1895 24.9785 47.486 25.0948 47.8164C25.1456 48.0002 25.1337 48.1956 25.061 48.3719C24.9883 48.5482 24.8589 48.6952 24.6933 48.7897C24.2136 49.1359 23.6225 49.2917 23.0346 49.2268ZM32.4261 7.10938C31.9032 7.12839 31.3833 7.02287 30.9092 6.80153C30.4351 6.5802 30.0203 6.24937 29.6991 5.83631C29.3172 5.36793 29.4917 4.74943 30.0975 4.33833C30.4783 4.07708 30.9357 3.95119 31.3965 3.98081C32.2132 3.98458 33.0063 4.25503 33.6552 4.75102C33.8201 4.88307 33.9659 5.0373 34.0885 5.20933C34.1837 5.32939 34.25 5.4697 34.2823 5.61944C34.3147 5.76919 34.3122 5.92435 34.2751 6.07298C34.238 6.22162 34.1672 6.35974 34.0683 6.47671C33.9694 6.59368 33.8449 6.68636 33.7045 6.74762C33.3239 6.99283 32.8788 7.1188 32.4261 7.10938ZM41.144 44.9509C40.9822 44.9622 40.82 44.9343 40.6713 44.8696C40.5226 44.8048 40.3917 44.7051 40.2897 44.579C40.1878 44.4528 40.1178 44.3039 40.0857 44.1449C40.0536 43.9859 40.0604 43.8215 40.1054 43.6656C40.3176 42.3194 41.962 41.0362 43.1221 41.0824C43.2972 41.0735 43.4716 41.1103 43.6282 41.1891C43.7849 41.2678 43.9184 41.3859 44.0157 41.5317C44.1131 41.6776 44.1709 41.8461 44.1836 42.021C44.1962 42.1959 44.1633 42.3711 44.088 42.5294C43.8955 43.0617 43.5866 43.5442 43.1838 43.9419C42.781 44.3395 42.2945 44.6422 41.7599 44.8278C41.5576 44.883 41.3518 44.9246 41.144 44.9525V44.9509ZM35.0375 47.6519C35.3685 47.6954 35.6931 47.778 36.0045 47.8981C36.1539 47.9561 36.2868 48.0497 36.3919 48.1707C36.4969 48.2917 36.5709 48.4365 36.6075 48.5925C36.6441 48.7485 36.6421 48.9111 36.6017 49.0661C36.5613 49.2212 36.4838 49.3641 36.3758 49.4825C36.1436 49.8096 35.8292 50.0697 35.4645 50.2368C34.5744 50.668 33.661 50.9943 32.6532 50.6352C32.5178 50.594 32.3932 50.5235 32.2881 50.4289C32.183 50.3342 32.0999 50.2176 32.0448 50.0873C31.9897 49.957 31.9639 49.8162 31.9692 49.6749C31.9745 49.5335 32.0108 49.3951 32.0755 49.2693C32.5996 48.246 33.5326 47.8694 34.5972 47.7198C34.7385 47.7099 34.8803 47.7099 35.0216 47.7198L35.0375 47.6519ZM18.4128 50.1875C17.4981 50.1342 16.6276 49.7756 15.9409 49.169C15.6934 48.9759 15.4879 48.7342 15.3373 48.4587C15.265 48.3347 15.2255 48.1944 15.2222 48.0508C15.219 47.9073 15.2522 47.7654 15.3188 47.6382C15.3853 47.511 15.483 47.4028 15.6028 47.3237C15.7226 47.2445 15.8604 47.197 16.0035 47.1857C16.6643 47.0921 17.3382 47.1846 17.9493 47.4529C18.5604 47.7212 19.0847 48.1546 19.4631 48.7043C19.5425 48.8031 19.5997 48.9179 19.6309 49.0408C19.662 49.1637 19.6663 49.2918 19.6435 49.4165C19.6207 49.5412 19.5713 49.6595 19.4988 49.7635C19.4262 49.8674 19.332 49.9545 19.2228 50.0188C18.9609 50.1089 18.6888 50.1661 18.4128 50.1891V50.1875ZM3.7921 29.2046C3.79017 29.0757 3.79708 28.9469 3.81279 28.819C3.83606 28.6907 3.88957 28.5699 3.9689 28.4664C4.04823 28.363 4.15109 28.28 4.26893 28.2243C4.38677 28.1686 4.5162 28.1418 4.64647 28.1461C4.77674 28.1505 4.9041 28.1858 5.01797 28.2493C5.40937 28.4344 5.76021 28.6953 6.05021 29.0168C6.52363 29.5449 6.84066 30.1944 6.96577 30.8925C7.01506 31.1047 7.02169 31.3246 6.98527 31.5394C6.94884 31.7542 6.87009 31.9597 6.75359 32.1438C6.69732 32.256 6.60277 32.3445 6.48701 32.3931C6.37125 32.4418 6.24191 32.4474 6.12236 32.409C5.73414 32.2873 5.37203 32.0943 5.05457 31.8399C4.47166 31.2866 4.05762 30.5794 3.86053 29.8003C3.82083 29.6061 3.79162 29.4099 3.77301 29.2126L3.7921 29.2046ZM8.31999 42.1411C8.80576 42.1598 9.2692 42.35 9.62808 42.6779C10.1661 43.0435 10.5862 43.5577 10.837 44.1579C10.9471 44.4639 11.0262 44.7802 11.073 45.1021C11.1531 45.7688 10.707 46.0664 10.0975 45.8649C9.68358 45.7058 9.29605 45.4851 8.94804 45.2103C8.32057 44.784 7.85478 44.1591 7.62564 43.4359C7.5525 43.1775 7.52909 42.9075 7.55668 42.6403C7.59222 42.2928 7.86063 42.1422 8.31999 42.1411ZM42.1837 9.70857C42.4452 9.79312 42.6991 9.89959 42.9428 10.0268C43.7271 10.4875 44.3472 11.1824 44.716 12.0139C44.8075 12.2406 44.8601 12.481 44.8715 12.7252C44.916 13.5076 44.3267 13.6424 43.8222 13.4641C43.2625 13.2803 42.7537 12.9677 42.3367 12.5515C41.9198 12.1352 41.6063 11.627 41.4214 11.0676C41.3454 10.7973 41.3236 10.5146 41.3573 10.2358C41.3769 9.94886 41.7275 9.76692 42.1837 9.70857ZM16.0947 5.11119C16.5 5.134 16.8697 5.20826 16.9965 5.62201C17.0575 5.81803 17.046 6.02944 16.9641 6.2177C16.6699 6.75558 16.2519 7.21566 15.7445 7.5599C15.2372 7.90414 14.6552 8.12264 14.0467 8.19733C13.7441 8.21788 13.4416 8.15533 13.172 8.01645C12.8733 7.88543 12.8171 7.37991 13.0203 7.04096C13.4172 6.42686 13.9703 5.92929 14.6228 5.5992C15.0728 5.33299 15.5748 5.16656 16.0947 5.11119ZM38.5236 49.108C38.1618 49.0889 37.7932 49.0735 37.6038 48.7441C37.5317 48.5808 37.5101 48.3997 37.5417 48.224C37.5732 48.0483 37.6566 47.886 37.781 47.758C38.1172 47.2304 38.5859 46.8002 39.1404 46.5103C39.6949 46.2205 40.3157 46.0811 40.9409 46.1062C41.0738 46.0895 41.2087 46.1128 41.3282 46.1732C41.4478 46.2336 41.5467 46.3283 41.6121 46.4452C41.6776 46.5621 41.7066 46.6959 41.6956 46.8294C41.6846 46.9629 41.634 47.0901 41.5503 47.1947C41.2318 47.7291 40.7917 48.1808 40.2658 48.5133C39.7399 48.8457 39.143 49.0495 38.5236 49.108ZM28.3666 4.06038C27.6855 4.11869 27.0049 3.9432 26.4369 3.56282C26.2374 3.42331 25.9743 3.32041 25.987 3.02919C26.0067 2.88742 26.0674 2.7545 26.1617 2.64678C26.2559 2.53906 26.3796 2.46124 26.5175 2.42289C27.1769 2.12844 27.9136 2.05404 28.6186 2.21071C29.1071 2.32051 29.5824 2.4945 30.0587 2.65257C30.1674 2.69758 30.2661 2.76376 30.3489 2.84725C30.568 3.0451 30.5611 3.17878 30.3489 3.40952C29.9725 3.80568 29.4564 4.03938 28.9103 4.06091C28.7432 4.07046 28.5783 4.06038 28.3666 4.06038ZM1.54195 22.5151C1.59984 21.3436 2.0859 20.234 2.90785 19.3972C3.05691 19.2418 3.27545 19.1399 3.44519 19.2789C3.64845 19.4249 3.7987 19.633 3.87326 19.8719C3.95747 20.4824 3.8643 21.1042 3.60486 21.6632C3.4189 22.2743 3.0483 22.8128 2.54396 23.2047C2.39068 23.3061 2.21604 23.3707 2.03368 23.3936C1.71116 23.4238 1.56582 23.2705 1.5446 22.9379C1.53452 22.7979 1.54195 22.6562 1.54195 22.5151ZM11.386 46.4547C11.7449 46.5409 12.0969 46.6538 12.4389 46.7926C13.3135 47.1846 14.0468 47.8356 14.5395 48.6577C14.7665 49.0608 14.6456 49.4003 14.1846 49.4533C13.8603 49.4886 13.5324 49.4383 13.2335 49.3075C12.3674 48.9336 11.6035 48.3577 11.0056 47.6281C10.7128 47.2605 10.6577 47.0043 10.9118 46.7221C11.0546 46.6083 11.2147 46.5181 11.386 46.4547ZM3.51415 17.0913C3.55972 16.5312 3.73145 15.9886 4.01648 15.5042C4.27534 15.0866 4.55746 14.6839 4.86149 14.298C4.9621 14.1657 5.1034 14.0701 5.26363 14.0259C5.42387 13.9817 5.59419 13.9914 5.74839 14.0535C5.9855 14.1442 6.10008 14.3675 6.06348 14.7658C6.03306 15.7016 5.66465 16.5946 5.02645 17.2796C4.83655 17.469 4.65514 17.6653 4.45622 17.8456C4.38467 17.9057 4.29812 17.9451 4.20585 17.9597C3.62024 18.0636 3.51415 17.9613 3.51415 17.0913ZM25.9855 53.3861C25.3068 53.4456 24.6259 53.3014 24.0297 52.9718C23.9253 52.9182 23.8287 52.8506 23.7427 52.7707C23.6941 52.7369 23.6544 52.6917 23.6271 52.639C23.5998 52.5864 23.5858 52.5279 23.5862 52.4686C23.5866 52.4093 23.6015 52.351 23.6295 52.2988C23.6575 52.2465 23.6978 52.2019 23.747 52.1687C23.9139 51.9861 24.1175 51.8409 24.3445 51.7426C24.5715 51.6442 24.8167 51.5949 25.0641 51.5979C25.7404 51.6186 26.4369 51.4918 27.0745 51.8101C27.4045 51.9841 27.7202 52.184 28.0187 52.4079C28.1778 52.522 28.1661 52.6779 28.0271 52.8323C27.8658 53.0039 27.6716 53.1414 27.4561 53.2365C27.2406 53.3316 27.0082 53.3825 26.7726 53.3861C26.5403 53.3983 26.3053 53.3861 25.987 53.3861H25.9855ZM6.69099 12.8234C6.73309 12.3418 6.91425 11.883 7.21242 11.5025C7.6382 10.8117 8.22591 10.2351 8.9247 9.82262C9.02015 9.75367 9.13458 9.71589 9.25232 9.71447C9.37006 9.71305 9.48537 9.74804 9.58246 9.81466C9.68167 9.88016 9.75634 9.97674 9.79474 10.0893C9.83314 10.2018 9.8331 10.3239 9.79464 10.4363C9.58367 11.4455 8.99698 12.3367 8.15343 12.9294C7.9007 13.1169 7.61652 13.2578 7.31427 13.3453C6.85225 13.4657 6.68993 13.3023 6.69099 12.8234ZM42.8796 8.44133C42.477 8.29334 42.0606 8.17611 41.6745 7.99152C40.8943 7.61733 40.2626 6.99164 39.881 6.21505C39.8272 6.04308 39.8428 5.85687 39.9245 5.69627C39.9577 5.59277 40.0294 5.50597 40.1247 5.45376C40.2201 5.40155 40.3318 5.38791 40.4369 5.41567C40.8539 5.52561 41.2577 5.68016 41.6416 5.87663C42.344 6.23559 42.9552 6.7501 43.4286 7.38097C43.5113 7.48017 43.5631 7.60144 43.5775 7.72977C43.5919 7.85809 43.5684 7.98784 43.5098 8.10291C43.4515 8.2064 43.361 8.28791 43.2519 8.33496C43.1429 8.382 43.0214 8.39198 42.9062 8.36336L42.8796 8.44133ZM48.1077 40.1419C48.4896 40.1695 48.7442 40.3975 48.6732 40.7614C48.6151 41.1069 48.4814 41.4353 48.2817 41.7231C47.8164 42.3215 47.316 42.8916 46.7832 43.4306C46.5831 43.5898 46.3458 43.6955 46.0936 43.7378C45.6984 43.8412 45.5101 43.69 45.5101 43.2811C45.5216 43.1067 45.5573 42.9347 45.6162 42.7702C45.7666 42.2269 46.0317 41.7222 46.3937 41.29C46.7557 40.8578 47.2061 40.5083 47.7147 40.2649C47.8419 40.2126 47.9734 40.1714 48.1077 40.1419ZM30.4545 53.3463C30.0029 53.3554 29.5583 53.2346 29.1734 52.9983C28.8684 52.7978 28.8552 52.5814 29.1161 52.314C29.3631 52.0528 29.6598 51.8437 29.9889 51.699C30.318 51.5544 30.6727 51.4771 31.0321 51.4717C31.6851 51.3792 32.3506 51.4336 32.9799 51.6308C33.451 51.8356 33.5013 52.1528 33.1311 52.5092C32.6319 52.8832 32.0447 53.122 31.4262 53.2025C31.1058 53.2717 30.7812 53.3198 30.4545 53.3463ZM22.6797 3.49386C22.2552 3.45284 21.8354 3.37348 21.4252 3.25675C20.9308 3.07057 20.907 2.68705 21.3509 2.39318C21.9774 1.92964 22.7328 1.67318 23.512 1.65958C23.9894 1.59512 24.4752 1.64196 24.9315 1.79643C24.9421 1.80174 24.9564 1.80174 24.9643 1.80916C25.1272 1.96512 25.3887 2.10462 25.42 2.28338C25.4439 2.42554 25.2121 2.66053 25.0413 2.77511C24.3679 3.28576 23.5214 3.5127 22.6829 3.4074L22.6797 3.49386ZM32.7333 1.89085C33.2197 1.95875 33.7098 2.00808 34.1904 2.10303C34.384 2.16806 34.5674 2.26021 34.7352 2.37674C34.9097 2.47169 35.0805 2.57354 35.2555 2.66796C35.612 2.86104 35.8921 3.20583 35.8061 3.41483C35.7347 3.54289 35.633 3.65152 35.51 3.73122C35.3869 3.81093 35.2462 3.85928 35.1001 3.87207C34.6221 3.94648 34.1331 3.8996 33.678 3.73574C32.9768 3.62417 32.3303 3.28931 31.8347 2.78094C31.7042 2.62446 31.552 2.49026 31.6628 2.25739C31.7059 2.15383 31.7813 2.06693 31.8777 2.00959C31.9741 1.95226 32.0865 1.92754 32.198 1.93912C32.3741 1.94549 32.5503 1.93912 32.7285 1.93912L32.7333 1.89085ZM21.6697 52.9771C20.6787 52.9521 19.7141 52.652 18.8838 52.1103C18.7172 51.9724 18.6061 51.779 18.5709 51.5656C18.5178 51.3263 18.7449 51.2171 18.9422 51.173C19.2293 51.0832 19.5294 51.0414 19.8302 51.0494C20.7472 51.1121 21.6312 51.4167 22.3922 51.9321C22.5 52.0021 22.5956 52.0893 22.6749 52.1904C22.9285 52.5617 22.8097 52.8455 22.3705 52.9156C22.1387 52.9527 21.9031 52.9575 21.6697 52.9771ZM17.1466 4.39297C16.9129 4.3432 16.6826 4.27871 16.457 4.19989C16.2173 4.10016 16.1796 3.92883 16.3308 3.72248C16.4024 3.63026 16.4895 3.55112 16.5881 3.48856C17.4701 2.86065 18.4908 2.45536 19.5633 2.30725C20.0821 2.24943 20.3139 2.41918 20.2397 2.85945C20.2153 2.97137 20.1565 3.07286 20.0715 3.1496C19.6114 3.58776 19.0496 3.90473 18.4367 4.07205C18.0097 4.17655 17.5805 4.28529 17.1466 4.39297ZM45.4305 46.1009C45.2965 46.4203 45.121 46.7206 44.9086 46.9942C44.3249 47.6244 43.6367 48.1489 42.8743 48.5447C42.7388 48.6111 42.5892 48.6439 42.4383 48.6402C42.0235 48.6142 41.8946 48.3537 42.0882 47.9888C42.6857 46.9217 43.6575 46.114 44.8158 45.7216C45.1568 45.588 45.3828 45.7439 45.3621 46.0622L45.4305 46.1009ZM34.7394 52.6217C34.5113 52.523 34.2461 52.4875 34.1267 52.3374C33.949 52.114 34.1915 51.913 34.3469 51.7783C34.6094 51.5499 34.8914 51.3451 35.1898 51.1661C35.9728 50.704 36.8863 50.5129 37.7889 50.6224C37.895 50.6325 38.0791 50.7561 38.0722 50.8054C38.0457 50.9996 38.0133 51.2664 37.8807 51.3598C37.4669 51.6667 37.0176 51.9224 36.5424 52.1215C35.9505 52.3193 35.3487 52.4863 34.7394 52.6217ZM12.4644 6.53173C12.3129 6.84475 12.1422 7.14805 11.953 7.43985C11.3661 8.17705 10.6002 8.75172 9.72833 9.10917C9.52888 9.20253 9.32678 9.27361 9.14484 9.09538C9.07528 8.99385 9.03805 8.87366 9.03805 8.75058C9.03805 8.62751 9.07528 8.50732 9.14484 8.4058C9.78901 7.46063 10.6912 6.72046 11.744 6.2734C11.8507 6.22501 11.9647 6.19488 12.0814 6.18429C12.2819 6.1689 12.4081 6.30151 12.4644 6.53173ZM33.6918 1.71634C33.9002 1.74339 34.1129 1.754 34.3177 1.79961C35.1235 2.01286 35.9025 2.31718 36.6395 2.70668C37.5492 3.14058 38.4769 3.53895 39.3893 3.96702C39.6292 4.09241 39.8597 4.23512 40.0789 4.39403C40.2126 4.48208 40.3192 4.59401 40.238 4.77489C40.2119 4.85964 40.1553 4.93173 40.0792 4.97727C40.0031 5.02281 39.9129 5.03858 39.8259 5.02155C38.9001 4.91075 38.0183 4.56368 37.2654 4.0137C37.0968 3.90665 36.9384 3.78431 36.7922 3.64822C36.6727 3.52997 36.5912 3.37868 36.5583 3.21379C36.5587 3.12043 36.5301 3.02925 36.4765 2.95279C36.4229 2.87633 36.347 2.81833 36.2591 2.78678C35.6046 2.52951 34.9521 2.26747 34.2965 2.01604C34.0949 1.93859 33.8822 1.89085 33.6748 1.82932C33.6775 1.79272 33.6843 1.75188 33.6918 1.71634ZM7.34185 43.8163C7.32488 44.1462 7.12967 44.2687 6.85809 44.1414C6.74124 44.0884 6.63376 44.0167 6.53982 43.9293C5.86489 43.2744 5.30489 42.5107 4.88323 41.6701C4.79346 41.4665 4.74168 41.2483 4.73046 41.0261C4.70819 40.7784 4.82011 40.6951 5.05563 40.7837C5.27878 40.8568 5.48804 40.9669 5.67466 41.1094C6.4721 41.7781 7.0459 42.6747 7.31904 43.6789C7.3298 43.7241 7.33743 43.77 7.34185 43.8163ZM2.53017 36.7969L2.73705 36.3136C2.90965 36.3629 3.07293 36.4403 3.22028 36.5428C3.97321 37.3424 4.46497 38.3522 4.63021 39.438C4.65641 39.5283 4.66488 39.6229 4.65514 39.7165C4.6265 39.8501 4.59467 40.0538 4.50715 40.0904C4.41906 40.1418 4.31477 40.1578 4.21534 40.1353C4.1159 40.1127 4.02872 40.0533 3.9714 39.9689C3.6282 39.3855 3.26431 38.8083 2.97734 38.1967C2.79662 37.7412 2.64721 37.2738 2.53017 36.7979V36.7969ZM2.03739 26.8054C1.98434 27.5565 1.9488 28.105 1.90106 28.6524C1.88462 28.837 1.86393 29.0333 1.59659 29.046C1.48534 29.0665 1.37045 29.0437 1.27554 28.9821C1.18062 28.9205 1.1129 28.8249 1.0863 28.715C0.926641 28.1698 0.840478 27.6057 0.830092 27.0377C0.829577 26.8315 0.84358 26.6256 0.871997 26.4213C0.941337 25.9968 1.04784 25.5791 1.19027 25.1732C1.22395 25.1123 1.27181 25.0604 1.32979 25.0219C1.38777 24.9834 1.45418 24.9594 1.52339 24.952C1.6125 24.952 1.77057 25.1 1.78861 25.2029C1.89841 25.7981 1.97586 26.3975 2.03739 26.8064V26.8054ZM2.90361 34.2072C2.90361 34.36 2.89936 34.5128 2.90361 34.6655C2.90997 34.8512 2.80972 34.9355 2.64528 34.9907C2.46387 35.0512 2.38536 34.9451 2.30579 34.8215C1.6263 33.7911 1.33561 32.5525 1.48572 31.3274C1.49933 31.2507 1.52987 31.1779 1.5751 31.1144C1.62033 31.0509 1.67913 30.9983 1.74723 30.9604C1.94615 30.8803 2.09521 31.0288 2.18432 31.2182C2.64143 32.1497 2.88705 33.1708 2.90361 34.2083V34.2072ZM49.6715 13.732C49.6715 14.1107 49.4519 14.2725 49.2206 14.1261C48.1597 13.4558 47.4029 12.3971 47.1121 11.1763C47.1009 11.033 47.113 10.8887 47.1481 10.7493C47.3242 10.779 47.5433 10.753 47.668 10.8496C47.9293 11.0483 48.1591 11.2855 48.3496 11.5529C48.7697 12.1587 49.1553 12.7883 49.5457 13.4137C49.5996 13.5144 49.6418 13.6208 49.6715 13.7309V13.732ZM14.583 49.8634C14.9405 49.9626 15.246 50.0411 15.5479 50.1328C16.308 50.3459 17.0118 50.7239 17.6092 51.2399C17.6892 51.3062 17.7532 51.3898 17.7964 51.4844C17.9412 51.8467 17.8399 51.9878 17.4511 51.9761C17.3343 51.9729 17.2186 51.954 17.1068 51.9199C16.2166 51.6548 15.3691 51.263 14.5904 50.7566C14.5124 50.7036 14.4058 50.6606 14.3713 50.5858C14.2781 50.4221 14.2248 50.2388 14.2159 50.0506C14.2201 49.9753 14.4663 49.9164 14.583 49.8634ZM46.9126 9.92075C46.8444 9.9969 46.7489 10.0431 46.6468 10.0494C46.5448 10.0556 46.4443 10.0214 46.3673 9.95417C46.0735 9.75949 45.7796 9.5627 45.5053 9.34256C44.9253 8.90239 44.429 8.36159 44.0402 7.74592C43.9896 7.68092 43.9535 7.60587 43.9342 7.52578C43.9181 7.42687 43.9368 7.32545 43.9872 7.23881C44.0259 7.21692 44.0694 7.20494 44.1138 7.20392C44.1582 7.2029 44.2022 7.21288 44.2418 7.23298C44.5074 7.38161 44.7564 7.55819 44.9844 7.75971C45.5372 8.30077 46.0681 8.86463 46.5949 9.43168C46.7159 9.58437 46.8223 9.74811 46.9126 9.92075ZM10.2153 47.7845C9.20743 46.9639 8.14654 46.1932 7.44211 45.0119C7.55113 44.9411 7.68001 44.9073 7.80973 44.9155C7.93944 44.9236 8.06311 44.9732 8.16245 45.057C8.97549 45.5943 9.69135 46.2659 10.2795 47.043C10.34 47.1429 10.3949 47.2462 10.4439 47.3522C10.5532 47.5511 10.5012 47.6853 10.2153 47.7845ZM38.6764 51.2218C38.6806 51.0757 38.7195 50.9328 38.79 50.8047C38.8605 50.6767 38.9604 50.5673 39.0816 50.4856C39.7965 49.9527 40.5775 49.5147 41.405 49.1828C41.4765 49.1426 41.555 49.1161 41.6363 49.1048C41.7652 49.1205 41.8927 49.146 42.0177 49.1812C41.9715 49.3149 41.9646 49.5037 41.8723 49.5716C41.5194 49.8232 41.1531 50.0554 40.7748 50.267C40.2974 50.5407 39.8126 50.8044 39.3198 51.0484C39.1112 51.1262 38.8958 51.1842 38.6764 51.2218ZM15.7611 3.79993C15.6793 3.97341 15.5693 4.13206 15.4354 4.26937C14.9389 4.61629 14.4249 4.94092 13.9029 5.24911C13.5704 5.44672 13.2222 5.61651 12.8617 5.75675C12.7275 5.80979 12.4638 5.79282 12.3997 5.7037C12.2607 5.51433 12.4331 5.36262 12.6044 5.26184C13.4224 4.78232 14.2414 4.30491 15.0614 3.82963C15.1626 3.75638 15.2831 3.7145 15.4079 3.70922C15.5326 3.70394 15.6562 3.73548 15.7632 3.79993H15.7611ZM27.8261 0.945598C27.8463 1.23045 27.6585 1.26386 27.4718 1.31267C26.6884 1.45875 25.8897 1.50439 25.0948 1.44846C24.8732 1.45327 24.6519 1.42793 24.4371 1.37314C24.3198 1.34184 24.2281 1.214 24.1034 1.11322C24.9235 0.906752 25.7692 0.820803 26.614 0.858074H26.6374C27.0356 0.845132 27.4341 0.874471 27.8261 0.945598ZM32.5693 1.45642C32.4541 1.56442 32.3156 1.6445 32.1645 1.69049C32.0134 1.73647 31.8537 1.74713 31.6978 1.72164C30.8984 1.62669 30.1028 1.50044 29.306 1.38428C29.2355 1.38061 29.1667 1.36083 29.105 1.32646C29.0227 1.25778 28.9461 1.18256 28.8759 1.10155C28.9671 1.05116 29.0589 0.956737 29.1496 0.957798C29.57 0.957571 29.9902 0.979704 30.4083 1.0241C31.0003 1.09624 31.5891 1.19915 32.1768 1.30206C32.3127 1.33979 32.4442 1.39152 32.5693 1.45642ZM6.02741 11.807C6.05764 12.4038 4.61695 14.5913 3.95071 14.8629C3.94736 14.691 3.97448 14.5199 4.03081 14.3574C4.52589 13.5741 5.03423 12.8 5.55584 12.0351C5.67248 11.9102 5.80667 11.803 5.9542 11.7168L6.02741 11.807ZM2.09521 19.0688C2.0045 18.4678 3.10305 15.8962 3.50832 15.727C3.76081 16.2182 2.68347 18.8073 2.09521 19.0688ZM25.5155 53.943C24.2485 53.9406 22.9875 53.7682 21.7663 53.4306L21.7758 53.2672C21.8819 53.2519 21.988 53.2275 22.0941 53.2227C23.1608 53.2304 24.2234 53.355 25.263 53.594C25.4391 53.6253 25.4364 53.638 25.5155 53.943ZM26.5626 53.9653C26.5451 53.7314 26.684 53.6561 26.8612 53.6507C27.902 53.6216 28.9432 53.5977 29.9845 53.5828C30.0906 53.5828 30.1935 53.6725 30.298 53.7202L30.2948 53.8433C30.0842 53.9202 29.8657 53.9736 29.6434 54.0024C29.0817 54.0136 28.5199 54.0162 27.9576 54.0162H27.9147H26.7297C26.6718 54.0073 26.6155 53.9902 26.5626 53.9653ZM48.0457 43.5686C47.9505 43.8641 47.819 44.1467 47.6542 44.4098C47.1381 45.0464 46.5806 45.6506 46.0252 46.2542C45.8756 46.3893 45.713 46.5092 45.5398 46.6123L45.4406 46.5274C45.495 46.3847 45.5662 46.249 45.6528 46.1232C46.2745 45.4212 46.9036 44.7258 47.5401 44.0369C47.695 43.8688 47.877 43.7256 48.0467 43.5707C48.3013 42.7538 48.7054 41.9913 49.2386 41.3221C49.4094 41.0703 49.5933 40.8277 49.7898 40.5954C49.898 40.4859 50.0149 40.3853 50.1393 40.2946C50.1978 40.3767 50.2274 40.4759 50.2234 40.5767C50.2193 40.6774 50.1819 40.7739 50.117 40.8511C49.8311 41.3338 49.5336 41.8096 49.2365 42.2833C49.0625 42.5612 48.8652 42.8249 48.7061 43.1102C48.645 43.237 48.552 43.3458 48.4362 43.4258C48.3205 43.5057 48.1858 43.5542 48.0457 43.5664V43.5686ZM6.54194 10.9461C6.61673 10.3838 8.41388 8.418 8.88704 8.35434C8.83028 8.8763 7.07875 10.831 6.54141 10.9466L6.54194 10.9461ZM10.7155 48.1882C11.6072 48.3033 13.686 49.8628 13.7093 50.4129C12.6257 49.7941 11.6204 49.0474 10.715 48.1887L10.7155 48.1882ZM19.8445 1.99164C20.2078 1.62032 22.4224 1.19172 23.0468 1.3551C22.7338 1.77044 20.4354 2.2383 19.8439 1.99217L19.8445 1.99164ZM31.3191 53.5553C31.5254 53.2099 34.0742 52.6922 34.7139 52.8763C34.6201 52.9601 34.5612 53.0567 34.4843 53.0736C33.532 53.366 32.5473 53.5403 31.5525 53.5924C31.4738 53.5852 31.3957 53.573 31.3186 53.5558L31.3191 53.5553ZM43.5788 6.67707C43.1088 6.73648 40.9865 5.23054 40.8883 4.78921C41.2289 4.76322 43.4117 6.27711 43.5782 6.6776L43.5788 6.67707ZM18.0643 52.2716C19.0271 52.4265 19.906 52.8609 20.8449 53.0959C20.4577 53.2991 18.4022 52.6784 18.0643 52.2716ZM13.6987 37.4472C13.6652 37.1203 13.7257 36.7905 13.8731 36.4968C14.0206 36.203 14.2488 35.9575 14.531 35.789C14.7783 35.6382 15.0576 35.5474 15.3463 35.5238C15.8596 35.4404 16.3857 35.4921 16.8729 35.6739C17.049 35.7583 17.1487 35.6633 17.2516 35.5265C18.1764 34.2962 19.1041 33.0687 20.0349 31.8441C20.542 31.1794 20.5399 31.1885 20.1309 30.4915C19.9402 30.1437 19.852 29.7491 19.8764 29.3533C19.9008 28.9575 20.0369 28.5767 20.2688 28.2551C20.6054 27.695 21.1373 27.2794 21.762 27.0881C21.8637 27.0624 21.952 26.9994 22.0095 26.9117C22.0669 26.824 22.0894 26.7179 22.0723 26.6144C22.0649 25.2162 22.0649 23.8176 22.0723 22.4186C22.0865 22.3149 22.0619 22.2096 22.0032 22.1229C21.9444 22.0362 21.8557 21.9744 21.7541 21.9492C21.1751 21.7425 20.6682 21.373 20.2943 20.8851C20.112 20.6533 19.9832 20.384 19.9173 20.0966C19.8514 19.8092 19.8499 19.5107 19.9129 19.2227C20.0535 18.6292 20.3868 18.099 20.8607 17.7151C21.3347 17.3312 21.9225 17.1152 22.5322 17.1009C22.907 17.0578 23.2867 17.0896 23.6491 17.1944C24.0115 17.2992 24.3495 17.4749 24.6434 17.7114C24.886 17.8968 25.0861 18.1318 25.2306 18.4007C25.375 18.6697 25.4604 18.9664 25.481 19.2709C25.5197 19.7482 25.4146 20.2261 25.1794 20.6432C24.9443 21.0602 24.5896 21.3974 24.1612 21.6113C23.9416 21.7444 23.6987 21.8393 23.4833 21.9783C23.4341 22.0096 23.392 22.0508 23.3597 22.0993C23.3274 22.1478 23.3055 22.2026 23.2956 22.26C23.2839 23.7405 23.2908 25.2215 23.2839 26.7025C23.2839 26.9433 23.4308 26.9852 23.6101 27.0361C23.9871 27.1329 24.3366 27.3156 24.6311 27.5701C24.9256 27.8246 25.1571 28.1438 25.3075 28.5028C25.4959 28.9438 25.537 29.4337 25.4248 29.8999C25.3125 30.366 25.0528 30.7835 24.6843 31.0903C24.3404 31.4402 23.9119 31.6953 23.4405 31.831C22.9691 31.9666 22.4706 31.9783 21.9933 31.8648C21.8878 31.8346 21.7752 31.841 21.6738 31.8829C21.5724 31.9248 21.4882 31.9997 21.4348 32.0955C20.394 33.4747 19.3448 34.8464 18.2871 36.2107C18.2047 36.3028 18.157 36.4207 18.1522 36.5442C18.1475 36.6677 18.186 36.7889 18.2611 36.8871C18.4242 37.1565 18.5617 37.4406 18.6717 37.7358C18.7641 38.0291 18.7859 38.34 18.7355 38.6434C18.6851 38.9467 18.5638 39.2339 18.3815 39.4815C18.1992 39.7291 17.961 39.9303 17.6864 40.0685C17.4117 40.2068 17.1083 40.2782 16.8008 40.2771C16.175 40.2755 15.5636 40.0901 15.0424 39.7438C14.5213 39.3975 14.1134 38.9056 13.8695 38.3293C13.7725 38.0445 13.715 37.7477 13.6987 37.4472Z" fill="white"/>
<path d="M56.7048 41.978V37.6711H55.1899V36.78H59.1998V37.6711H57.685V41.978H56.7048Z" fill="white"/>
<path d="M62.2049 41.978V36.78H65.5465V37.6711H63.1851V38.9112H65.3386V39.8023H63.1851V41.0869H65.5911V41.978H62.2049Z" fill="white"/>
<path d="M70.7368 42.082C70.0933 42.082 69.5834 41.9038 69.2071 41.5473C68.8309 41.186 68.6428 40.6711 68.6428 40.0028V38.7553C68.6428 38.087 68.8309 37.5746 69.2071 37.2181C69.5834 36.8568 70.0933 36.6761 70.7368 36.6761C71.3754 36.6761 71.868 36.8518 72.2145 37.2033C72.566 37.5498 72.7418 38.0275 72.7418 38.6365V38.681H71.7764V38.6068C71.7764 38.2998 71.6898 38.0473 71.5165 37.8493C71.3482 37.6513 71.0883 37.5523 70.7368 37.5523C70.3903 37.5523 70.118 37.6587 69.92 37.8716C69.722 38.0845 69.623 38.3741 69.623 38.7404V40.0176C69.623 40.379 69.722 40.6686 69.92 40.8864C70.118 41.0993 70.3903 41.2058 70.7368 41.2058C71.0883 41.2058 71.3482 41.1067 71.5165 40.9087C71.6898 40.7058 71.7764 40.4533 71.7764 40.1513V40.0176H72.7418V40.1216C72.7418 40.7305 72.566 41.2107 72.2145 41.5622C71.868 41.9087 71.3754 42.082 70.7368 42.082Z" fill="white"/>
<path d="M75.84 41.978V36.78H76.8201V38.9261H78.7508V36.78H79.731V41.978H78.7508V39.8171H76.8201V41.978H75.84Z" fill="white"/>
<path d="M83.0798 41.978V36.78H84.9437L85.9758 41.3097H86.1095V36.78H87.0749V41.978H85.211L84.1788 37.4483H84.0452V41.978H83.0798Z" fill="white"/>
<path d="M92.4122 42.082C91.7588 42.082 91.239 41.9038 90.8528 41.5473C90.4667 41.186 90.2736 40.6711 90.2736 40.0028V38.7553C90.2736 38.087 90.4667 37.5746 90.8528 37.2181C91.239 36.8568 91.7588 36.6761 92.4122 36.6761C93.0657 36.6761 93.5855 36.8568 93.9716 37.2181C94.3578 37.5746 94.5508 38.087 94.5508 38.7553V40.0028C94.5508 40.6711 94.3578 41.186 93.9716 41.5473C93.5855 41.9038 93.0657 42.082 92.4122 42.082ZM92.4122 41.2058C92.7786 41.2058 93.0632 41.0993 93.2662 40.8864C93.4692 40.6736 93.5706 40.3889 93.5706 40.0325V38.7256C93.5706 38.3691 93.4692 38.0845 93.2662 37.8716C93.0632 37.6587 92.7786 37.5523 92.4122 37.5523C92.0509 37.5523 91.7662 37.6587 91.5583 37.8716C91.3553 38.0845 91.2538 38.3691 91.2538 38.7256V40.0325C91.2538 40.3889 91.3553 40.6736 91.5583 40.8864C91.7662 41.0993 92.0509 41.2058 92.4122 41.2058Z" fill="white"/>
<path d="M97.5741 41.978V36.78H98.5543V41.0869H100.931V41.978H97.5741Z" fill="white"/>
<path d="M105.957 42.082C105.304 42.082 104.784 41.9038 104.398 41.5473C104.012 41.186 103.819 40.6711 103.819 40.0028V38.7553C103.819 38.087 104.012 37.5746 104.398 37.2181C104.784 36.8568 105.304 36.6761 105.957 36.6761C106.611 36.6761 107.13 36.8568 107.517 37.2181C107.903 37.5746 108.096 38.087 108.096 38.7553V40.0028C108.096 40.6711 107.903 41.186 107.517 41.5473C107.13 41.9038 106.611 42.082 105.957 42.082ZM105.957 41.2058C106.323 41.2058 106.608 41.0993 106.811 40.8864C107.014 40.6736 107.116 40.3889 107.116 40.0325V38.7256C107.116 38.3691 107.014 38.0845 106.811 37.8716C106.608 37.6587 106.323 37.5523 105.957 37.5523C105.596 37.5523 105.311 37.6587 105.103 37.8716C104.9 38.0845 104.799 38.3691 104.799 38.7256V40.0325C104.799 40.3889 104.9 40.6736 105.103 40.8864C105.311 41.0993 105.596 41.2058 105.957 41.2058Z" fill="white"/>
<path d="M112.914 42.082C112.558 42.082 112.233 42.0028 111.941 41.8444C111.654 41.681 111.424 41.4459 111.251 41.1389C111.082 40.827 110.998 40.4483 110.998 40.0028V38.7553C110.998 38.087 111.186 37.5746 111.563 37.2181C111.939 36.8568 112.449 36.6761 113.092 36.6761C113.731 36.6761 114.223 36.8469 114.57 37.1884C114.921 37.5251 115.097 37.983 115.097 38.5622V38.5919H114.132V38.5325C114.132 38.3493 114.092 38.1835 114.013 38.035C113.939 37.8865 113.825 37.7701 113.671 37.686C113.518 37.5969 113.325 37.5523 113.092 37.5523C112.746 37.5523 112.473 37.6587 112.275 37.8716C112.077 38.0845 111.978 38.3741 111.978 38.7404V40.0176C111.978 40.379 112.077 40.6711 112.275 40.8939C112.473 41.1117 112.751 41.2206 113.107 41.2206C113.464 41.2206 113.723 41.1265 113.887 40.9384C114.05 40.7503 114.132 40.5127 114.132 40.2256V40.1513H112.899V39.3196H115.097V41.978H114.191V41.4805H114.058C114.023 41.5647 113.966 41.6538 113.887 41.7478C113.813 41.8419 113.699 41.9211 113.545 41.9855C113.392 42.0498 113.181 42.082 112.914 42.082Z" fill="white"/>
<path d="M119.389 41.978V40.1884L117.622 36.78H118.713L119.812 39.0077H119.946L121.045 36.78H122.137L120.369 40.1884V41.978H119.389Z" fill="white"/>
</svg>
